<?xml version="1.0" encoding="UTF-8"?>
<svg id="Layer_2" data-name="Layer 2" xmlns="http://www.w3.org/2000/svg" xmlns:xlink="http://www.w3.org/1999/xlink" viewBox="0 0 61.69 61.69">
  <defs>
    <style>
      .cls-1 {
        fill: #b23427;
      }

      .cls-2 {
        fill: none;
      }

      .cls-3 {
        clip-path: url(#clippath);
      }
    </style>
    <clipPath id="clippath">
      <rect class="cls-2" width="61.69" height="61.69"/>
    </clipPath>
  </defs>
  <g id="Layer_1-2" data-name="Layer 1">
    <g class="cls-3">
      <path class="cls-1" d="M30.77,0C13.8,0,0,13.8,0,30.77s13.8,30.77,30.77,30.77,30.77-13.8,30.77-30.77S47.73,0,30.77,0ZM48.05,33.74h-14.31v14.31c0,1.63-1.33,2.98-2.97,2.98s-2.98-1.35-2.98-2.98v-14.31h-14.31c-1.63,0-2.98-1.33-2.98-2.98s1.35-2.98,2.98-2.98h14.31v-14.31c0-1.63,1.33-2.98,2.98-2.98s2.97,1.35,2.97,2.98v14.31h14.31c1.63,0,2.98,1.33,2.98,2.98s-1.35,2.98-2.98,2.98Z"/>
    </g>
  </g>
</svg>