<?xml version="1.0" encoding="UTF-8"?>
<svg id="Layer_2" data-name="Layer 2" xmlns="http://www.w3.org/2000/svg" xmlns:xlink="http://www.w3.org/1999/xlink" viewBox="0 0 61.69 61.69">
  <defs>
    <style>
      .cls-1 {
        fill: none;
      }

      .cls-2 {
        clip-path: url(#clippath-1);
      }

      .cls-3 {
        fill: #b23427;
        fill-rule: evenodd;
      }

      .cls-4 {
        clip-path: url(#clippath-2);
      }

      .cls-5 {
        clip-path: url(#clippath);
      }
    </style>
    <clipPath id="clippath">
      <rect class="cls-1" x="7.14" width="46.67" height="19.52"/>
    </clipPath>
    <clipPath id="clippath-1">
      <rect class="cls-1" y="11.52" width="61.69" height="38.67"/>
    </clipPath>
    <clipPath id="clippath-2">
      <rect class="cls-1" x="7.14" y="42.19" width="46.67" height="19.51"/>
    </clipPath>
  </defs>
  <g id="Layer_1-2" data-name="Layer 1">
    <g>
      <g class="cls-5">
        <path class="cls-3" d="M29.29,19.08c.26.01.51.02.77.02l1.52-1.52c.32-.33.84-.33,1.17,0,.32.32.32.84,0,1.17l-.32.32c.27-.01.54-.03.81-.05l1.28-1.64c.28-.36.79-.42,1.16-.15.36.28.42.79.15,1.16l-.29.38c.28-.04.56-.08.83-.13l1.07-1.76c.23-.4.74-.52,1.14-.29.4.23.52.74.29,1.14l-.29.47c.29-.07.57-.14.85-.21l.88-1.89c.18-.41.69-.6,1.1-.4.41.19.59.69.4,1.1l-.27.58c.29-.09.57-.19.84-.3l.7-2.04c.15-.43.61-.67,1.05-.52s.67.62.52,1.05l-.24.72c.06-.03.11-.05.18-.08.21-.1.43-.19.65-.3l.53-2.21c.1-.44.55-.72.99-.61s.71.55.61.99l-.21.88c.26-.14.52-.29.78-.43l.36-2.42c.07-.45.49-.77.94-.7.45.07.77.49.7.94l-.16,1.04c.23-.16.47-.31.69-.47l.21-2.67c.03-.45.43-.8.88-.77.45.03.8.43.77.89l-.1,1.23c.21-.17.42-.33.62-.5l.02-1.79C47.03,3.34,39.11,0,30.77,0S14.58,3.33,8.78,9.26h1.17c.45-.01.83.35.83.8s-.36.82-.81.83l-1.51.02c.21.18.42.35.64.53.04-.01.09-.02.14-.02l3.03-.23c.45-.04.85.31.89.77.03.45-.32.85-.77.88l-1.3.1c.22.15.42.29.64.43.06-.02.1-.04.17-.05l2.83-.43c.45-.07.87.24.94.69.07.45-.25.88-.7.94l-1.08.17c.21.12.42.23.64.35.05-.03.11-.05.17-.06l2.63-.64c.44-.11.89.17.99.61.11.44-.17.88-.61.99l-.87.21s.06.03.09.04c.18.08.36.16.55.23.05-.03.09-.05.14-.07l2.43-.83c.43-.15.91.08,1.05.51s-.08.9-.51,1.05l-.7.24c.22.07.43.14.65.2.03-.02.06-.03.09-.05l2.23-1.03c.41-.2.9-.01,1.1.4.19.41.01.91-.4,1.1l-.54.24c.22.05.44.1.67.15.01,0,.02,0,.03-.02l2.03-1.24c.4-.23.91-.1,1.14.28.23.4.11.9-.28,1.13l-.43.27c.23.03.48.06.72.09l1.78-1.4c.36-.28.87-.21,1.16.14.28.36.21.88-.14,1.16l-.36.28-.02.05Z"/>
      </g>
      <g class="cls-2">
        <path class="cls-3" d="M17.86,43.16l-.09-1.4c-.03-.45.32-.84.78-.88.45-.03.84.32.88.78l.06.93c.52-.17,1.03-.32,1.56-.47l.05-1.33c.02-.45.4-.81.85-.79.45.02.81.4.79.85l-.03.84c.53-.12,1.05-.23,1.58-.32l.19-1.28c.07-.45.49-.77.94-.7s.77.49.7.94l-.12.77c.53-.07,1.06-.13,1.59-.18l.34-1.23c.12-.44.58-.7,1.01-.58.44.12.7.58.58,1.01l-.2.7c.47-.02.94-.03,1.42-.03h.17l.5-1.21c.18-.42.66-.62,1.08-.45.42.18.61.66.45,1.08l-.26.64c.51.03,1.03.07,1.54.11l.68-1.19c.22-.4.72-.54,1.13-.32.4.23.54.73.31,1.13l-.33.6c.5.07.99.16,1.49.24l.85-1.17c.27-.38.79-.45,1.16-.18.36.27.45.79.18,1.16l-.42.58c.48.12.95.24,1.42.38l1.05-1.14c.3-.33.83-.35,1.17-.05s.35.83.05,1.17l-.52.57c.24.08.48.17.72.26.1.02.2.06.3.11.11.04.22.09.33.13l1.24-1.09c.34-.31.86-.27,1.17.07.31.34.27.86-.07,1.17l-.65.57c.19.09.4.18.6.28.13.03.24.09.35.17.12.06.23.1.34.17l1.44-1.05c.36-.27.89-.19,1.15.18.27.38.19.89-.17,1.15l-.79.57c.18.09.35.19.53.3.1.04.2.1.29.17.14.08.28.16.4.24l1.63-.99c.39-.23.9-.11,1.14.28.23.39.11.89-.27,1.13l-.95.58c.39.27.78.54,1.15.82l1.81-.92c.4-.21.9-.05,1.1.36.21.4.05.9-.36,1.11l-1.12.57c.36.31.72.61,1.08.92h.01c4.35-5.46,6.7-12.18,6.7-19.16s-2.34-13.7-6.7-19.16h-.01c-.35.31-.7.61-1.08.92l1.12.57c.4.2.57.7.36,1.11-.2.4-.7.57-1.1.36l-1.81-.92c-.38.29-.77.55-1.15.82l.95.58c.38.23.51.74.27,1.13-.23.4-.74.51-1.14.28l-1.63-.99c-.14.08-.27.17-.4.24-.09.08-.19.14-.29.17-.17.1-.35.2-.53.3l.78.57c.36.27.45.79.18,1.15-.27.37-.78.45-1.15.18l-1.44-1.05c-.11.06-.22.11-.34.17-.1.08-.22.14-.35.17-.2.09-.4.19-.6.28l.65.57c.34.3.37.82.07,1.17s-.82.38-1.17.07l-1.24-1.1c-.11.04-.22.09-.33.13-.09.06-.2.1-.3.11-.24.09-.48.18-.72.26l.52.57c.3.33.28.86-.05,1.17s-.86.29-1.17-.05l-1.05-1.14c-.47.14-.95.26-1.42.38l.42.58c.27.36.19.88-.18,1.16-.36.27-.89.19-1.16-.18l-.85-1.17c-.49.1-.99.18-1.49.24l.33.6c.22.4.08.9-.31,1.13-.41.23-.91.08-1.13-.31l-.68-1.2c-.51.05-1.02.09-1.54.12l.27.64c.18.42-.03.91-.45,1.08-.42.17-.91-.03-1.08-.45l-.51-1.22h-.17c-.47,0-.94,0-1.41-.03l.2.69c.12.44-.14.9-.58,1.01-.44.12-.89-.14-1.01-.58l-.34-1.23c-.53-.05-1.06-.11-1.59-.18l.12.77c.07.45-.24.88-.7.94s-.88-.24-.94-.7l-.19-1.28c-.53-.09-1.06-.2-1.58-.32l.03.84c.02.45-.34.84-.8.85-.45.02-.83-.34-.85-.8l-.05-1.32c-.52-.15-1.04-.3-1.56-.47l-.06.93c-.03.45-.42.8-.88.78-.45-.03-.8-.42-.78-.88l.09-1.4c-.51-.2-1.01-.41-1.51-.62l-.17,1.03c-.07.45-.49.76-.94.69-.45-.07-.76-.49-.68-.94l.23-1.49c-.49-.24-.97-.49-1.44-.75l-.29,1.13c-.1.44-.56.71-1,.61-.44-.11-.71-.56-.6-1l.39-1.6c-.46-.29-.91-.58-1.36-.88l-.4,1.23c-.15.43-.61.67-1.04.53-.43-.15-.67-.61-.53-1.04l.57-1.72c-.43-.32-.85-.65-1.27-.99l-.54,1.34c-.17.42-.66.63-1.08.45-.42-.17-.63-.66-.45-1.08l.39-.96C2.16,17.68.01,24.12.01,30.81s2.15,13.11,6.14,18.44l-.39-.96c-.17-.42.04-.9.45-1.08.42-.17.91.04,1.08.45l.54,1.34c.41-.34.83-.67,1.27-.99l-.57-1.71c-.15-.43.09-.9.53-1.04.43-.15.91.1,1.04.53l.4,1.23c.45-.3.9-.6,1.36-.87l-.39-1.6c-.11-.44.17-.9.6-1,.44-.11.9.17,1,.6l.29,1.13c.48-.27.96-.51,1.44-.74l-.23-1.49c-.07-.45.23-.88.68-.94.45-.07.88.23.94.69l.17,1.03c.5-.21,1-.42,1.51-.61v-.04Z"/>
      </g>
      <g class="cls-4">
        <path class="cls-3" d="M11.7,48.17c-.22.14-.43.28-.64.43l1.3.1c.45.04.79.43.77.89-.03.45-.43.79-.89.77l-3.03-.24c-.05,0-.09-.01-.14-.02-.21.17-.43.35-.64.53l1.51.02c.45,0,.82.38.81.83,0,.45-.38.82-.83.81h-1.17c5.79,5.92,13.67,9.25,21.98,9.25s16.26-3.35,22.07-9.33l-.02-1.78c-.2-.17-.41-.34-.61-.5l.1,1.23c.04.45-.32.85-.77.88-.45.03-.85-.31-.89-.77l-.2-2.67c-.24-.16-.46-.31-.7-.47l.16,1.04c.07.45-.24.88-.7.94-.45.07-.87-.24-.94-.69l-.36-2.43c-.26-.15-.51-.29-.78-.43l.21.87c.1.44-.17.9-.61.99-.44.11-.88-.17-.99-.6l-.53-2.22c-.21-.1-.43-.2-.65-.29-.06-.03-.12-.05-.18-.08l.24.71c.15.43-.09.9-.52,1.05-.43.15-.9-.09-1.05-.52l-.7-2.04c-.28-.1-.57-.2-.84-.29l.27.58c.19.41.01.9-.4,1.09-.41.19-.9.01-1.1-.4l-.88-1.89c-.28-.07-.57-.15-.85-.21l.28.47c.23.39.11.9-.28,1.14-.4.23-.91.11-1.14-.28l-1.07-1.76c-.28-.05-.56-.08-.83-.13l.29.38c.29.36.22.88-.15,1.16-.36.28-.88.21-1.16-.15l-1.28-1.64c-.28-.02-.54-.04-.81-.05l.32.32c.32.32.32.84,0,1.17s-.84.32-1.17,0l-1.52-1.52c-.26.01-.51.01-.77.02l.36.28c.36.29.42.8.14,1.16-.28.36-.8.42-1.16.14l-1.78-1.4c-.23.03-.48.06-.71.09l.43.27c.38.23.51.74.27,1.13-.23.39-.74.51-1.14.27l-2.03-1.23s-.02-.01-.03-.02c-.22.05-.44.1-.67.15l.54.24c.41.19.6.69.4,1.1-.19.41-.69.6-1.1.4l-2.22-1.03s-.06-.03-.09-.05c-.21.07-.43.14-.65.2l.69.23c.43.15.66.62.51,1.05s-.61.66-1.05.51l-2.43-.83c-.05-.02-.1-.04-.14-.07-.18.08-.36.16-.55.23-.03.01-.06.03-.09.04l.88.21c.44.11.71.55.6.99-.1.44-.55.72-.99.61l-2.63-.64c-.06,0-.12-.03-.17-.06-.22.12-.43.22-.64.35l1.08.17c.45.07.77.49.7.94-.07.45-.49.77-.94.69l-2.83-.43c-.06-.01-.12-.02-.17-.05l.02.05Z"/>
      </g>
    </g>
  </g>
</svg>