<?xml version="1.0" encoding="UTF-8"?>
<svg id="Layer_2" data-name="Layer 2" xmlns="http://www.w3.org/2000/svg" xmlns:xlink="http://www.w3.org/1999/xlink" viewBox="0 0 60.42 61.29">
  <defs>
    <style>
      .cls-1 {
        fill: none;
      }

      .cls-2 {
        clip-path: url(#clippath-1);
      }

      .cls-3 {
        fill: #b23427;
        fill-rule: evenodd;
      }

      .cls-4 {
        clip-path: url(#clippath-2);
      }

      .cls-5 {
        clip-path: url(#clippath);
      }
    </style>
    <clipPath id="clippath">
      <rect class="cls-1" x="23.08" width="21.33" height="17.29"/>
    </clipPath>
    <clipPath id="clippath-1">
      <rect class="cls-1" x="16.55" y="44.79" width="20.65" height="16.5"/>
    </clipPath>
    <clipPath id="clippath-2">
      <rect class="cls-1" x="31.3" y="24.14" width="29.12" height="21.8"/>
    </clipPath>
  </defs>
  <g id="Layer_1-2" data-name="Layer 1">
    <g>
      <g class="cls-5">
        <path class="cls-3" d="M23.36,1.66l4.16,15.49c8.87-3.11,14.54-10.48,16.3-13.04C37.7,1.03,30.51,0,23.36,1.66"/>
      </g>
      <path class="cls-3" d="M21.43,2.18c-7.04,2.14-12.76,6.64-16.51,12.39,7.98,4.35,14.93,4.69,20.68,3.17l-4.17-15.56"/>
      <path class="cls-3" d="M45.59,5.09c-1.77,2.6-7.89,10.69-17.54,14.05l2.88,10.72,28.19-7.56c-2.27-7.49-7.22-13.48-13.52-17.21"/>
      <path class="cls-3" d="M3.87,16.3C.3,22.66-.98,30.31.79,37.92l28.19-7.55-2.85-10.65c-6.18,1.65-13.66,1.28-22.26-3.43"/>
      <path class="cls-3" d="M29.5,32.31L1.31,39.86c2.27,7.48,7.21,13.47,13.48,17.19,5.09-8.39,11.39-12.45,17.55-14.11l-2.84-10.63"/>
      <g class="cls-2">
        <path class="cls-3" d="M32.88,44.92c-5.74,1.56-11.58,5.34-16.32,13.1,6.13,3.11,13.33,4.15,20.49,2.47l-4.17-15.57"/>
      </g>
      <path class="cls-3" d="M55.48,47.63c-2.81-1.34-11.41-4.9-20.64-3.15l4.16,15.51c7.02-2.13,12.73-6.62,16.48-12.35"/>
      <g class="cls-4">
        <path class="cls-3" d="M59.63,24.23l-28.19,7.55,2.87,10.7c10.05-1.93,19.39,2.04,22.22,3.41,3.59-6.37,4.88-14.04,3.1-21.67"/>
      </g>
    </g>
  </g>
</svg>