<?xml version="1.0" encoding="UTF-8"?>
<svg id="Layer_2" data-name="Layer 2" xmlns="http://www.w3.org/2000/svg" xmlns:xlink="http://www.w3.org/1999/xlink" viewBox="0 0 61.69 60.09">
  <defs>
    <style>
      .cls-1 {
        fill: #b23427;
      }

      .cls-2 {
        fill: none;
      }

      .cls-3 {
        clip-path: url(#clippath);
      }
    </style>
    <clipPath id="clippath">
      <rect class="cls-2" width="61.69" height="60.09"/>
    </clipPath>
  </defs>
  <g id="Layer_1-2" data-name="Layer 1">
    <g>
      <path class="cls-1" d="M25.39,12.07h-.83c-.98,0-1.77.73-1.77,1.63v6.87h4.37v-6.87c0-.9-.79-1.63-1.77-1.63Z"/>
      <path class="cls-1" d="M37.1,12.07h-.83c-.97,0-1.77.73-1.77,1.63v6.87h4.36v-6.87c0-.9-.79-1.63-1.77-1.63Z"/>
      <g class="cls-3">
        <path class="cls-1" d="M30.83.06C13.86.06.05,13.86.05,30.83c0,8.19,3.18,15.9,8.96,21.71,3.42,3.44,7.66,6.05,12.25,7.55.3.1.61.15.92.15,1.25,0,2.41-.8,2.82-2.05.51-1.56-.34-3.23-1.9-3.73-3.7-1.21-7.12-3.32-9.89-6.1-4.66-4.69-7.23-10.91-7.23-17.53,0-13.7,11.15-24.84,24.85-24.84s24.84,11.15,24.84,24.84c0,6.64-2.58,12.88-7.27,17.57-1.8,1.61-6.27,4.86-8.95,4.86-1.38,0-2.41-.43-3.24-1.36-2.13-2.36-2.59-7.15-2.57-10.48,5.15-.26,9.24-4.5,9.24-9.71v-9.22h-24.11v9.22c0,5.1,3.94,9.29,8.94,9.69-.03,3.97.53,10.48,4.08,14.44,1.96,2.19,4.61,3.34,7.67,3.34,5.73,0,12.26-5.79,12.98-6.45l.09-.09c5.85-5.82,9.07-13.57,9.07-21.82C61.6,13.86,47.79.06,30.83.06Z"/>
      </g>
    </g>
  </g>
</svg>