<?xml version="1.0" encoding="UTF-8"?>
<svg id="Layer_2" data-name="Layer 2" xmlns="http://www.w3.org/2000/svg" xmlns:xlink="http://www.w3.org/1999/xlink" viewBox="0 0 61.69 68.9">
  <defs>
    <style>
      .cls-1 {
        fill: #b23427;
      }

      .cls-2 {
        fill: none;
      }

      .cls-3 {
        clip-path: url(#clippath-1);
      }

      .cls-4 {
        clip-path: url(#clippath-2);
      }

      .cls-5 {
        clip-path: url(#clippath);
      }
    </style>
    <clipPath id="clippath">
      <rect class="cls-2" x="11.67" width="16" height="14.41"/>
    </clipPath>
    <clipPath id="clippath-1">
      <rect class="cls-2" x="37" y="35.74" width="24.69" height="33.16"/>
    </clipPath>
    <clipPath id="clippath-2">
      <rect class="cls-2" y="15.74" width="39.67" height="53.16"/>
    </clipPath>
  </defs>
  <g id="Layer_1-2" data-name="Layer 1">
    <g>
      <g class="cls-5">
        <path class="cls-1" d="M26.45,6.91c0,.45-.05.9-.14,1.34s-.22.87-.39,1.29-.39.81-.64,1.19-.53.72-.85,1.04c-.32.32-.67.6-1.04.85s-.77.46-1.19.64-.84.3-1.29.39-.89.13-1.34.13-.9-.04-1.34-.13c-.44-.09-.87-.22-1.29-.39s-.81-.39-1.19-.64-.72-.54-1.04-.85-.6-.67-.85-1.04-.46-.77-.64-1.19-.3-.84-.39-1.29-.13-.89-.13-1.34.04-.9.13-1.34.22-.87.39-1.29.39-.81.64-1.19.54-.72.85-1.04.67-.6,1.04-.85.77-.46,1.19-.64.85-.3,1.29-.39c.44-.09.89-.13,1.34-.13s.9.04,1.34.13.87.22,1.29.39.81.39,1.19.64.72.54,1.04.85c.32.32.6.67.85,1.04s.46.77.64,1.19.3.84.39,1.29.14.89.14,1.34Z"/>
      </g>
      <path class="cls-1" d="M41.79,36.08c0,2.77,2.35,5.01,5.26,5.01s5.26-2.24,5.26-5.01v-.49c0-2.77-2.35-5.02-5.26-5.02s-5.26,2.24-5.26,5.02v.49Z"/>
      <g class="cls-3">
        <path class="cls-1" d="M61.01,37.35c-.42-.8-1.21-1.31-2.12-1.34-1.1-.04-2.16.61-2.91,1.79l-1.19,1.81-.92,1.15c-1.3,1.65-3.25,2.59-5.35,2.59h-2.98c-1.62,0-3.15-.56-4.36-1.58-.19,2.21-1.77,4.11-4.04,4.64-.02,0-.04.01-.06.01l1.94,3.03c.85,1.32,1.3,3.99,1.3,5.57v11.1c0,1.45,1.18,2.63,2.63,2.63s2.63-1.18,2.63-2.63v-5.89c0-.8.61-1.49,1.41-1.52.82-.03,1.5.64,1.5,1.45v5.95c0,1.45,1.18,2.63,2.63,2.63s2.63-1.18,2.63-2.63v-11.1c0-1.57.45-4.24,1.3-5.57l5.6-8.69c.75-1.18.89-2.42.37-3.4Z"/>
      </g>
      <g class="cls-4">
        <path class="cls-1" d="M33.14,42.11c.45,1.51,1.97,2.41,3.49,2.06,1.54-.35,2.53-1.86,2.23-3.42l-3.18-16.79c-.8-4.23-4.49-7.3-8.8-7.31-3.61,0-7.2-.02-7.31-.02-.11,0-3.7.01-7.31.02-4.31,0-7.99,3.07-8.8,7.31L.29,40.76c-.3,1.55.69,3.06,2.23,3.42,1.53.35,3.04-.56,3.49-2.06l4.56-15.22h.24v23.61s.03,14.38.03,14.38c0,1.01.42,1.92,1.07,2.58.72.71,1.73,1.13,2.83,1.06,1.94-.13,3.41-1.8,3.41-3.74v-19.46c0-.78.64-1.42,1.42-1.42s1.42.64,1.42,1.42v19.47c0,1.94,1.47,3.61,3.41,3.73,1.1.07,2.11-.34,2.83-1.06.66-.66,1.07-1.57,1.07-2.58l.04-14.38v-23.61s.23,0,.23,0l4.56,15.22h0Z"/>
      </g>
    </g>
  </g>
</svg>