<?xml version="1.0" encoding="UTF-8"?>
<svg id="Layer_2" data-name="Layer 2" xmlns="http://www.w3.org/2000/svg" xmlns:xlink="http://www.w3.org/1999/xlink" viewBox="0 0 61.69 34.45">
  <defs>
    <style>
      .cls-1 {
        fill: #b23427;
      }

      .cls-2 {
        fill: none;
      }

      .cls-3 {
        clip-path: url(#clippath);
      }
    </style>
    <clipPath id="clippath">
      <rect class="cls-2" width="61.69" height="34.45"/>
    </clipPath>
  </defs>
  <g id="Layer_1-2" data-name="Layer 1">
    <g class="cls-3">
      <path class="cls-1" d="M61.28,33.88c-.26.44-.71.7-1.22.7h-21.58c-.09.02-.19.03-.29.03H1.47c-.51,0-.96-.27-1.22-.7C0,33.46,0,32.94.26,32.49L18.61.71c.25-.44.71-.7,1.22-.7s.96.27,1.22.7l8.28,14.35,7.16-12.4c.2-.35.54-.59.92-.68.1-.02.2-.03.3-.03s.2.01.3.03c.39.08.72.32.92.68l6.06,10.49,1.35-2.33c.16-.28.4-.48.68-.6.17-.07.35-.1.54-.1s.38.04.54.1c.28.12.52.32.68.6l12.5,21.65c.26.44.26.97,0,1.41Z"/>
    </g>
  </g>
</svg>