<?xml version="1.0" encoding="UTF-8"?>
<svg id="Layer_2" data-name="Layer 2" xmlns="http://www.w3.org/2000/svg" viewBox="0 0 2169.75 484.85">
  <defs>
    <style>
      .cls-1 {
        fill: #000;
      }

      .cls-1, .cls-2, .cls-3, .cls-4 {
        stroke-width: 0px;
      }

      .cls-2 {
        fill: #be5247;
      }

      .cls-5 {
        fill: none;
        stroke: #2ba680;
        stroke-miterlimit: 10;
        stroke-width: 5px;
      }

      .cls-3 {
        fill: #2ba680;
      }

      .cls-4 {
        fill: #fff;
      }
    </style>
  </defs>
  <g id="Layer_1-2" data-name="Layer 1">
    <g>
      <g>
        <g>
          <path class="cls-2" d="M2169.75,242.42c0,35.42-7.59,69.07-21.25,99.4-4.69,10.43-10.11,20.46-16.17,30.04-38.4,60.71-103.03,103.17-177.95,111.49-5.67.63-11.41,1.06-17.18,1.29-3.27.13-6.57.2-9.88.2-20.18,0-39.77-2.47-58.51-7.11V7.11c18.73-4.64,38.33-7.11,58.51-7.11,133.88,0,242.42,108.53,242.42,242.42Z"/>
          <g>
            <path class="cls-4" d="M2091.72,289.9c0,14.46,11.71,26.18,26.17,26.18s26.14-11.73,26.14-26.18-11.71-26.2-26.14-26.2-26.17,11.74-26.17,26.2Z"/>
            <g>
              <path class="cls-4" d="M2076.31,252.93c-11.37,28.54-25.76,50.1-45.62,79.95-11.31,16.99-24.12,36.24-39.46,61.24-26.22,42.69-34.42,67.39-36.84,89.25-5.67.63-11.41,1.06-17.18,1.29-6.99-37.39-2.98-87.44,28.89-134.69l29.31-43.79,35.31-51.71c32.1-45.8,36.67-95.19,30.84-123.53-.07-.47.13-.95.55-1.15l-.05.05c.42-.25.93-.12,1.28.2,17.42,19.15,33.58,71.46,12.98,122.91Z"/>
              <path class="cls-4" d="M2022.7,64.85c-.43.3-.6.85-.43,1.31,11.51,27.43-.46,69.64-32.9,115.88l-46.94,68.41-22.79,33.86c-46.77,69.3-26.64,143.54-7.36,176.49.25.41.73.63,1.18.5.47-.13.77-.55.77-1.02l-.09-11.1c-.41-35.09-.8-68.29,37.94-131.34,19.07-31.12,33.66-50.22,45.34-65.58,14.58-19.15,25.16-33.01,35.01-57.68,20.71-51.7,9.05-110.33-8.47-129.56-.33-.39-.93-.47-1.34-.17h.08Z"/>
              <path class="cls-4" d="M1890.84,186.99c0,14.46,11.71,26.18,26.14,26.18s26.14-11.73,26.14-26.18-11.71-26.2-26.14-26.2-26.14,11.74-26.14,26.2Z"/>
              <path class="cls-4" d="M2148.5,341.82c-4.69,10.43-10.11,20.46-16.17,30.04-36-5.25-73.48,2.57-104.63,23.86-.37.26-.97.22-1.31-.13-.35-.32-.42-.88-.17-1.3v.04c21.31-34.46,58.15-55.01,98.53-55.01,8.11,0,16.05.85,23.75,2.5Z"/>
            </g>
          </g>
        </g>
        <path class="cls-3" d="M1857.99,10.94c-52.77,13.35-98.55,44.24-130.8,86.08h16.39v56.71h-38.26v-22.74c-17.75,33.42-27.79,71.56-27.79,112.03s10.05,78.61,27.79,112.03v-23.03h38.26v56.74h-16.59c32.25,41.99,78.13,72.97,131,86.35.79.2,1.6.4,2.41.59V10.35c-.81.19-1.61.38-2.41.59ZM1743.58,275.3h-38.26v-56.74h38.26v56.74ZM1825.57,388.77h-38.26v-56.74h38.26v56.74ZM1825.57,275.3h-38.26v-56.74h38.26v56.74ZM1825.57,153.73h-38.26v-56.71h38.26v56.71Z"/>
      </g>
      <g>
        <path class="cls-1" d="M132.06,183.19h-55.22l-10.86,24.44h-17.2l47.07-102.83h17.38l47.25,102.83h-17.74l-10.68-24.44ZM125.9,169.25l-21.36-48.52-21.54,48.52h42.9Z"/>
        <path class="cls-1" d="M269.28,104.8v102.83h-14.48l-59.38-72.59v72.59h-17.56v-102.83h14.48l59.38,72.96v-72.96h17.56Z"/>
        <path class="cls-1" d="M395.83,104.8v102.83h-14.48l-59.38-72.59v72.59h-17.56v-102.83h14.48l59.38,72.96v-72.96h17.56Z"/>
        <path class="cls-1" d="M429.87,163.64v-58.84h17.56v58.47c0,20.09,9.78,30.59,27.7,30.59s27.7-10.32,27.7-30.59v-58.47h17.2v58.84c0,28.78-16.84,45.44-45.08,45.44s-45.08-16.66-45.08-45.44Z"/>
        <path class="cls-1" d="M616.88,183.19h-55.22l-10.86,24.44h-17.2l47.07-102.83h17.38l47.25,102.83h-17.74l-10.68-24.44ZM610.72,169.25l-21.36-48.52-21.54,48.52h42.9Z"/>
        <path class="cls-1" d="M662.68,104.8h17.56v88.16h55.22v14.66h-72.77v-102.83Z"/>
        <path class="cls-1" d="M792.31,196.76l6.88-13.76c7.97,6.52,21.18,11.22,34.76,11.22,17.2,0,23.53-6.52,23.53-14.3,0-23.9-62.28-7.24-62.28-45.98,0-18.28,15.75-30.59,41.46-30.59,12.31,0,25.53,2.72,34.58,8.87l-6.34,14.12c-8.87-6.15-19.19-8.15-28.78-8.15-16.47,0-23.35,6.52-23.35,14.66,0,23.72,62.28,7.6,62.28,45.44,0,18.65-15.57,30.78-41.82,30.78-15.93,0-32.4-4.89-40.91-12.31Z"/>
        <path class="cls-1" d="M889.7,156.21c0-30.41,23.9-52.86,55.76-52.86,17.56,0,31.14,5.25,40.55,16.11l-11.22,11.4c-7.97-8.51-17.56-12.31-28.78-12.31-22.27,0-38.56,15.75-38.56,37.65s16.29,37.66,38.56,37.66c11.22,0,20.82-3.98,28.78-12.49l11.22,11.4c-9.59,11.04-23.17,16.29-40.55,16.29-31.86,0-55.76-22.45-55.76-52.86Z"/>
        <path class="cls-1" d="M1009.55,104.8h17.56v43.45h56.3v-43.45h17.56v102.83h-17.56v-44.9h-56.3v44.9h-17.56v-102.83Z"/>
        <path class="cls-1" d="M1126.5,156.21c0-30.41,23.9-52.86,55.94-52.86s55.94,22.45,55.94,52.86-23.72,52.86-55.94,52.86-55.94-22.45-55.94-52.86ZM1220.64,156.21c0-21.9-16.29-37.65-38.2-37.65s-38.2,15.75-38.2,37.65,16.29,37.66,38.2,37.66,38.2-15.75,38.2-37.66Z"/>
        <path class="cls-1" d="M1254.32,156.21c0-30.41,23.9-52.86,55.94-52.86s55.94,22.45,55.94,52.86-23.72,52.86-55.94,52.86-55.94-22.45-55.94-52.86ZM1348.45,156.21c0-21.9-16.29-37.65-38.2-37.65s-38.2,15.75-38.2,37.65,16.29,37.66,38.2,37.66,38.2-15.75,38.2-37.66Z"/>
        <path class="cls-1" d="M1391.73,104.8h17.56v88.16h55.22v14.66h-72.77v-102.83Z"/>
      </g>
      <g>
        <path class="cls-1" d="M101.93,359.85c0,17.61-13.79,27.95-40.84,27.95H10.27v-103.1h47.92c24.69,0,38.3,10.35,38.3,26.68,0,10.89-5.26,18.69-13.8,22.87,12.16,3.45,19.24,12.16,19.24,25.59ZM27.87,298.13v30.86h28.5c14.34,0,22.51-5.45,22.51-15.43s-8.17-15.43-22.51-15.43h-28.5ZM84.14,358.39c0-11.07-8.35-15.97-23.96-15.97H27.87v31.94h32.31c15.61,0,23.96-5.08,23.96-15.97Z"/>
        <path class="cls-1" d="M126.07,343.69v-58.99h17.61v58.63c0,20.15,9.8,30.67,27.77,30.67s27.77-10.35,27.77-30.67v-58.63h17.24v58.99c0,28.86-16.88,45.56-45.2,45.56s-45.2-16.7-45.2-45.56Z"/>
        <path class="cls-1" d="M250.59,284.7h17.61v103.1h-17.61v-103.1Z"/>
        <path class="cls-1" d="M303.23,284.7h17.61v88.39h55.36v14.7h-72.96v-103.1Z"/>
        <path class="cls-1" d="M395.25,284.7h44.83c34.85,0,56.99,20.33,56.99,51.55s-22.14,51.55-56.99,51.55h-44.83v-103.1ZM439.36,373.1c25.23,0,39.93-14.16,39.93-36.85s-14.7-37.03-39.93-37.03h-26.5v73.87h26.5Z"/>
        <path class="cls-1" d="M522.67,284.7h17.61v103.1h-17.61v-103.1Z"/>
        <path class="cls-1" d="M666.97,284.7v103.1h-14.52l-59.53-72.78v72.78h-17.61v-103.1h14.52l59.53,73.15v-73.15h17.61Z"/>
        <path class="cls-1" d="M772.07,335.71h17.06v40.29c-9.98,8.53-24.87,13.25-39.75,13.25-32.85,0-56.81-22.51-56.81-53s23.96-53,56.09-53c17.97,0,31.94,5.26,41.56,16.15l-11.25,11.43c-8.17-8.53-18.15-12.34-29.95-12.34-22.33,0-38.66,15.79-38.66,37.75s16.34,37.75,39.21,37.75c8.53,0,15.97-1.82,22.51-5.81v-32.49Z"/>
        <path class="cls-1" d="M938.69,387.8l-22.14-30.86c-1.45.18-3.09.18-4.72.18h-24.5v30.67h-17.61v-103.1h42.11c27.05,0,44.11,13.25,44.11,36.3,0,15.97-8.35,27.23-22.69,32.67l24.5,34.12h-19.06ZM938.15,321c0-13.98-9.44-21.78-27.41-21.78h-23.41v43.56h23.41c17.97,0,27.41-7.81,27.41-21.78Z"/>
        <path class="cls-1" d="M1061.4,373.1v14.7h-77.32v-103.1h75.32v14.52h-57.72v29.04h51.37v14.34h-51.37v30.49h59.72Z"/>
        <path class="cls-1" d="M1179.2,284.7l-45.92,103.1h-17.42l-45.74-103.1h18.88l35.94,82.22,36.48-82.22h17.79Z"/>
        <path class="cls-1" d="M1198.26,284.7h17.61v103.1h-17.61v-103.1Z"/>
        <path class="cls-1" d="M1328.22,373.1v14.7h-77.32v-103.1h75.32v14.52h-57.72v29.04h51.37v14.34h-51.37v30.49h59.72Z"/>
        <path class="cls-1" d="M1503.01,284.7l-34.85,103.1h-18.69l-27.05-79.14-27.04,79.14h-18.88l-34.85-103.1h18.15l26.86,80.77,27.95-80.77h16.52l27.41,81.31,27.41-81.31h17.06Z"/>
      </g>
      <line class="cls-5" y1="243.85" x2="1508" y2="243.85"/>
    </g>
  </g>
</svg>