<?xml version="1.0" encoding="UTF-8"?>
<svg id="Layer_2" data-name="Layer 2" xmlns="http://www.w3.org/2000/svg" xmlns:xlink="http://www.w3.org/1999/xlink" viewBox="0 0 47.96 48.44">
  <defs>
    <style>
      .cls-1 {
        fill: #b23427;
      }

      .cls-2 {
        clip-path: url(#clippath);
      }
    </style>
    <clipPath id="clippath">
      <rect class="cls-1" y="45.58" width="47.96" height="2.87"/>
    </clipPath>
  </defs>
  <g id="Layer_1-2" data-name="Layer 1">
    <g>
      <polygon class="cls-1" points="13.13 25.13 .74 25.13 5.28 17.25 19.26 17.25 13.13 25.13"/>
      <path class="cls-1" d="M26.45,34.52c.44,0,.79.35.79.79v8.94h-6.53v-8.94c0-.43.36-.79.79-.79h4.95Z"/>
      <polygon class="cls-1" points="25.01 12.88 22.94 12.88 22.94 0 25.01 0 25.01 .72 33.53 .72 31.2 3.94 33.54 7.16 25.01 7.16 25.01 12.88"/>
      <path class="cls-1" d="M33.81,27.2l-9.83-12.63-9.84,12.63H3.91v17.05h14.73v-8.94c0-1.58,1.28-2.86,2.86-2.86h4.95c1.57,0,2.86,1.28,2.86,2.86v8.94h14.73v-17.05h-10.23ZM23.98,29.98c-2.11,0-3.82-1.7-3.82-3.81s1.71-3.82,3.82-3.82,3.81,1.72,3.81,3.82-1.7,3.81-3.81,3.81Z"/>
      <g>
        <rect class="cls-1" y="45.58" width="47.96" height="2.87"/>
        <g class="cls-2">
          <path class="cls-1" d="M47.78,46.32H.17c-.09,0-.17.08-.17.18v1.55c0,.09.08.18.17.18h47.61c.1,0,.18-.08.18-.18v-1.55c0-.09-.08-.18-.18-.18"/>
        </g>
      </g>
      <polygon class="cls-1" points="47.21 25.13 34.82 25.13 28.69 17.25 42.67 17.25 47.21 25.13"/>
      <polygon class="cls-1" points="47.21 25.13 34.82 25.13 28.69 17.25 42.67 17.25 47.21 25.13"/>
      <path class="cls-1" d="M33.81,27.2l-9.83-12.63-9.84,12.63H3.91v17.05h14.73v-8.94c0-1.58,1.28-2.86,2.86-2.86h4.95c1.57,0,2.86,1.28,2.86,2.86v8.94h14.73v-17.05h-10.23ZM23.98,29.98c-2.11,0-3.82-1.7-3.82-3.81s1.71-3.82,3.82-3.82,3.81,1.72,3.81,3.82-1.7,3.81-3.81,3.81Z"/>
      <path class="cls-1" d="M27.24,35.31v8.94h-6.53v-8.94c0-.43.36-.79.79-.79h4.95c.44,0,.79.35.79.79Z"/>
      <polygon class="cls-1" points="19.26 17.25 13.13 25.13 .74 25.13 5.28 17.25 19.26 17.25"/>
      <polygon class="cls-1" points="33.54 7.16 25.01 7.16 25.01 12.88 22.94 12.88 22.94 0 25.01 0 25.01 .72 33.53 .72 31.2 3.94 33.54 7.16"/>
    </g>
  </g>
</svg>