<?xml version="1.0" encoding="UTF-8"?>
<svg id="Layer_2" data-name="Layer 2" xmlns="http://www.w3.org/2000/svg" xmlns:xlink="http://www.w3.org/1999/xlink" viewBox="0 0 50.47 61.69">
  <defs>
    <style>
      .cls-1 {
        fill: #b23427;
      }

      .cls-2 {
        fill: none;
      }

      .cls-3 {
        clip-path: url(#clippath-1);
      }

      .cls-4 {
        clip-path: url(#clippath-3);
      }

      .cls-5 {
        clip-path: url(#clippath-2);
      }

      .cls-6 {
        clip-path: url(#clippath);
      }
    </style>
    <clipPath id="clippath">
      <rect class="cls-2" x="11.46" y="0" width="28" height="27.27"/>
    </clipPath>
    <clipPath id="clippath-1">
      <rect class="cls-2" y="40.6" width="4.8" height="17.33"/>
    </clipPath>
    <clipPath id="clippath-2">
      <rect class="cls-2" x="7.46" y="35.27" width="36" height="26.42"/>
    </clipPath>
    <clipPath id="clippath-3">
      <rect class="cls-2" x="44.8" y="40.6" width="5.68" height="17.33"/>
    </clipPath>
  </defs>
  <g id="Layer_1-2" data-name="Layer 1">
    <g>
      <g class="cls-6">
        <path class="cls-1" d="M38.29,13.06c0,.86-.08,1.71-.25,2.55-.17.84-.42,1.66-.74,2.45s-.73,1.55-1.2,2.26c-.48.71-1.02,1.37-1.63,1.98-.61.6-1.27,1.15-1.98,1.63-.71.47-1.47.88-2.26,1.2s-1.61.58-2.45.74c-.84.17-1.69.25-2.55.25s-1.7-.08-2.55-.25c-.84-.17-1.66-.42-2.45-.74s-1.55-.73-2.26-1.2c-.71-.48-1.37-1.02-1.98-1.63-.6-.61-1.15-1.27-1.63-1.98-.47-.71-.88-1.47-1.2-2.26s-.58-1.61-.74-2.45c-.17-.84-.25-1.69-.25-2.55s.08-1.7.25-2.55c.17-.84.42-1.66.74-2.45s.73-1.55,1.2-2.26c.48-.71,1.02-1.37,1.63-1.98.61-.6,1.27-1.15,1.98-1.63.71-.47,1.47-.88,2.26-1.2s1.61-.58,2.45-.74c.84-.17,1.69-.25,2.55-.25s1.71.08,2.55.25c.84.17,1.66.42,2.45.74s1.55.73,2.26,1.2c.71.48,1.37,1.02,1.98,1.63.6.61,1.15,1.27,1.63,1.98.47.71.88,1.47,1.2,2.26s.58,1.61.74,2.45c.17.84.25,1.69.25,2.55Z"/>
      </g>
      <g class="cls-3">
        <path class="cls-1" d="M4.77,57.12v-15.58C1.94,46.27.2,51.77.05,57.12h4.72Z"/>
      </g>
      <path class="cls-1" d="M37.66,33.05c-3.78-2.52-8.03-3.78-12.43-3.78s-8.65,1.26-12.43,3.78c6.45.47,10.7,2.36,12.43,3.3,1.73-.94,5.98-2.83,12.43-3.3Z"/>
      <g class="cls-5">
        <path class="cls-1" d="M26.17,39.49s-.16,0,0,0q-.16,0,0,0c-.32.16-.47.16-.63.16h-.79c-.16,0-.32,0-.32-.16-.16,0-6.14-3.93-16.52-3.15v21.88c9.13-.63,15.1,2.05,17.31,3.3,2.2-1.1,8.19-3.78,17.31-3.3v-22.03c-10.23-.63-16.21,3.15-16.36,3.3Z"/>
      </g>
      <g class="cls-4">
        <path class="cls-1" d="M45.68,57.12h4.72c-.32-5.66-1.89-11.02-4.72-15.58v15.58Z"/>
      </g>
    </g>
  </g>
</svg>