<?xml version="1.0" encoding="UTF-8"?>
<svg id="Layer_2" data-name="Layer 2" xmlns="http://www.w3.org/2000/svg" xmlns:xlink="http://www.w3.org/1999/xlink" viewBox="0 0 100.17 100.17">
  <defs>
    <style>
      .cls-1 {
        fill: none;
      }

      .cls-2 {
        fill-rule: evenodd;
      }

      .cls-3 {
        clip-path: url(#clippath);
      }
    </style>
    <clipPath id="clippath">
      <rect class="cls-1" width="100.17" height="100.17"/>
    </clipPath>
  </defs>
  <g id="Layer_1-2" data-name="Layer 1">
    <g class="cls-3">
      <path class="cls-2" d="M18.95,89.08L89.08,18.96v22.83c0,3.05,2.47,5.57,5.57,5.57s5.52-2.52,5.52-5.57V5.57c0-.88-.23-1.7-.59-2.52l-.06-.12-.12-.18-.06-.12-.12-.12-.06-.12c-.18-.23-.06-.12-.23-.35-.23-.29-.53-.53-.82-.82-.18-.12-.12-.06-.29-.23h-.06l-.12-.06-.12-.12-.12-.06-.18-.12h-.12C96.3.23,95.54,0,94.66,0h-36.27C55.34,0,52.87,2.52,52.87,5.57s2.46,5.52,5.51,5.52h22.83L11.09,81.22v-22.83c0-3.05-2.47-5.52-5.52-5.52S0,55.34,0,58.39v36.27C0,95.54.23,96.3.64,97.12v.12l.18.23.06.06.06.18.06.12c.18.18.12.06.23.29.29.29.53.59.82.82.23.18.12.06.35.23l.12.12.18.06.06.06.18.12.12.06c.82.35,1.64.59,2.52.59h36.21c3.05,0,5.58-2.47,5.58-5.52s-2.52-5.57-5.58-5.57h-22.83Z"/>
      <path class="cls-2" d="M81.22,89.08L11.09,18.96v22.83c0,3.05-2.47,5.57-5.52,5.57S0,44.84,0,41.78V5.57C0,4.69.23,3.87.64,3.05v-.12l.18-.18.06-.12.06-.12.06-.12c.18-.23.12-.12.23-.35.29-.29.53-.53.82-.82.23-.12.12-.06.35-.23l.12-.06.18-.12.06-.06.18-.12h.12C3.87.23,4.69,0,5.57,0h36.21C44.83,0,47.36,2.52,47.36,5.57s-2.52,5.52-5.58,5.52h-22.83l70.13,70.13v-22.83c0-3.05,2.47-5.52,5.57-5.52s5.52,2.47,5.52,5.52v36.27c0,.88-.23,1.64-.59,2.47l-.06.12-.12.23-.06.06-.12.18-.06.12c-.18.18-.06.06-.23.29-.23.29-.53.59-.82.82-.18.18-.12.06-.29.23h-.06l-.12.12-.12.06-.12.06-.18.12-.12.06c-.82.35-1.58.59-2.47.59h-36.27c-3.05,0-5.51-2.47-5.51-5.52s2.46-5.57,5.51-5.57h22.83Z"/>
    </g>
  </g>
</svg>