<?xml version="1.0" encoding="UTF-8"?>
<svg id="Layer_2" data-name="Layer 2" xmlns="http://www.w3.org/2000/svg" xmlns:xlink="http://www.w3.org/1999/xlink" viewBox="0 0 61.69 55.89">
  <defs>
    <style>
      .cls-1 {
        fill: #b23427;
      }

      .cls-2 {
        fill: none;
      }

      .cls-3 {
        clip-path: url(#clippath-1);
      }

      .cls-4 {
        clip-path: url(#clippath);
      }
    </style>
    <clipPath id="clippath">
      <rect class="cls-2" x="7.17" y="11.62" width="47.18" height="44.27"/>
    </clipPath>
    <clipPath id="clippath-1">
      <rect class="cls-2" width="61.69" height="29.33"/>
    </clipPath>
  </defs>
  <g id="Layer_1-2" data-name="Layer 1">
    <g>
      <g class="cls-4">
        <path class="cls-1" d="M54.04,31.78L31.77,12.11c-.58-.51-1.44-.51-2.02,0L7.47,31.78c-.16.15-.26.35-.26.57v23.14c0,.42.34.77.76.77h15.66c.42,0,.77-.34.77-.77v-14.78c0-1.69,1.36-3.06,3.05-3.06h6.61c1.69,0,3.06,1.37,3.06,3.06v14.78c0,.42.34.77.76.77h15.66c.42,0,.77-.34.77-.77v-23.14c0-.22-.09-.43-.26-.57"/>
      </g>
      <g class="cls-3">
        <path class="cls-1" d="M60.18,24.15L34.79,1.84c-2.31-2.03-5.76-2.03-8.06,0L1.34,24.15c-1.25,1.1-1.31,3.03-.14,4.2,1.08,1.08,2.81,1.14,3.95.13L28.74,7.7c1.16-1.02,2.89-1.02,4.04,0l23.59,20.78c1.14,1.01,2.87.95,3.94-.13,1.18-1.18,1.12-3.1-.14-4.2"/>
      </g>
    </g>
  </g>
</svg>