<?xml version="1.0" encoding="UTF-8"?>
<svg id="Layer_2" data-name="Layer 2" xmlns="http://www.w3.org/2000/svg" viewBox="0 0 198.66 208.7">
  <defs>
    <style>
      .cls-1 {
        fill: #876;
        stroke: #876;
      }

      .cls-1, .cls-2 {
        stroke-miterlimit: 10;
        stroke-width: 0px;
      }

      .cls-2 {
        fill: #b23428;
        stroke: #b23428;
      }
    </style>
  </defs>
  <g id="Layer_1-2" data-name="Layer 1">
    <g>
      <path class="cls-2" d="M118.7,15.32c-.1.05-.15.16-.13.27,1.38,6.69.3,18.34-7.29,29.15l-8.35,12.2-6.93,10.33c-10.9,16.12-8.02,33.63-3.42,41.48.06.1.17.15.28.12.11-.03.18-.13.18-.24l-.02-2.7c-.1-7.81-.18-13.45,8.92-28.24,3.63-5.9,6.66-10.44,9.33-14.45,4.7-7.04,8.1-12.13,10.79-18.86,4.87-12.14,1.05-24.48-3.07-29-.08-.08-.2-.11-.3-.05h0Z"/>
      <path class="cls-2" d="M109.4,0c-.1.07-.14.2-.1.31,2.72,6.47-.11,16.43-7.78,27.34l-11.1,16.14-5.39,7.99c-11.06,16.35-6.3,33.87-1.74,41.64.06.1.17.15.28.12.11-.03.18-.13.18-.24l-.02-2.62c-.1-8.28-.19-16.11,8.97-30.99,4.51-7.34,7.96-11.85,10.72-15.47,3.45-4.52,5.95-7.79,8.28-13.61,4.9-12.2,2.14-26.03-2-30.57-.08-.09-.22-.11-.32-.04h0Z"/>
      <path class="cls-2" d="M78.26,28.82c0,3.41,2.77,6.18,6.18,6.18s6.18-2.77,6.18-6.18-2.77-6.18-6.18-6.18-6.18,2.77-6.18,6.18h0Z"/>
      <path class="cls-2" d="M125.76,53.1c0,3.41,2.77,6.18,6.19,6.18s6.18-2.77,6.18-6.18-2.77-6.18-6.18-6.18-6.19,2.77-6.19,6.18h0Z"/>
      <path class="cls-2" d="M38.16,29.37c-.08.08-.1.2-.05.3.05.1.16.15.27.13,2.11-.47,4.48-.67,6.66-.7,17.5-.24,29.81,13.37,29.81,29.81l-.03,1.26c0,.12.08.22.19.25.12.03.23-.03.28-.13,1.69-3.62,2.55-7.52,2.55-11.61,0-14.19-10.46-25.13-23.57-25.13-5.8,0-11.78,1.69-16.13,5.84h0Z"/>
      <path class="cls-2" d="M110.19,77.73c-.06.1-.04.23.04.31.08.08.22.09.31.03,12.92-8.81,30.44-7.84,42.61,2.37,2.71,2.27,5.06,4.91,6.98,7.84.06.1.19.14.3.1.11-.04.18-.15.16-.27-1.97-13.31-13.62-23.35-27.1-23.35-9.55,0-18.26,4.85-23.3,12.98h0Z"/>
      <path class="cls-1" d="M24.73,144.16c0,.58-.26,1.23-.65,1.64-.34.34-.73.48-1.42.48h-1v-4.18h1c1.19,0,2.07.88,2.07,2.06h0ZM25.41,144.17c0-1.52-1.11-2.62-2.66-2.62h-1.76v5.28h1.75c.92,0,1.47-.21,1.95-.77.46-.52.71-1.21.71-1.9h0Z"/>
      <polygon class="cls-1" points="32.13 146.83 32.13 141.55 32.78 141.55 32.78 146.83 32.13 146.83 32.13 146.83"/>
      <path class="cls-1" d="M41.64,146.97h-.4l-2.08-5.42h.7l1.56,4.12c.03.07.05.15.06.26,0-.1.02-.17.05-.26l1.5-4.12h.66l-2.05,5.42h0Z"/>
      <polygon class="cls-1" points="50.07 146.83 50.07 141.55 50.73 141.55 50.73 146.83 50.07 146.83 50.07 146.83"/>
      <path class="cls-1" d="M60.57,142.45c-.27-.16-.38-.22-.55-.27-.2-.06-.52-.11-.73-.11-.6,0-1.01.3-1.01.74,0,.39.23.59,1.3,1.16.36.19.64.37.83.54.26.22.41.58.41.96,0,.9-.67,1.47-1.74,1.47-.36,0-.7-.06-.98-.18-.2-.08-.34-.16-.68-.39l.34-.52c.3.2.42.27.61.34.23.09.49.14.76.14.62,0,1-.29,1-.8,0-.15-.02-.28-.08-.38-.09-.16-.24-.31-.45-.43-.09-.05-.38-.2-.88-.47-.79-.42-1.13-.84-1.13-1.38,0-.84.7-1.4,1.74-1.4.3,0,.62.04.89.13.22.07.34.14.64.31l-.3.54h0Z"/>
      <polygon class="cls-1" points="67.62 146.83 67.62 141.55 68.28 141.55 68.28 146.83 67.62 146.83 67.62 146.83"/>
      <path class="cls-1" d="M79.57,144.19c0,1.19-.87,2.17-1.93,2.17s-1.94-.98-1.94-2.17.87-2.16,1.94-2.16,1.93.98,1.93,2.16h0ZM80.29,144.19c0-1.58-1.11-2.74-2.65-2.74s-2.66,1.15-2.66,2.74,1.12,2.74,2.66,2.74,2.65-1.15,2.65-2.74h0Z"/>
      <path class="cls-1" d="M90.57,146.88l-2.66-4.12s-.06-.1-.1-.18c-.03-.06-.06-.09-.06-.12-.03-.06-.05-.1-.08-.2v4.58h-.66v-5.28h.86l2.62,4.02s.05.08.07.13c.03.08.04.09.1.24,0,.02.02.05.03.08v-4.47h.66v5.33h-.76Z"/>
      <path class="cls-1" d="M108.62,142.45c-.27-.16-.38-.22-.55-.27-.2-.06-.52-.11-.73-.11-.6,0-1.01.3-1.01.74,0,.39.23.59,1.3,1.16.36.19.64.37.83.54.26.22.41.58.41.96,0,.9-.67,1.47-1.74,1.47-.36,0-.7-.06-.98-.18-.2-.08-.34-.16-.68-.39l.34-.52c.3.2.42.27.61.34.23.09.49.14.76.14.62,0,1-.29,1-.8,0-.15-.02-.28-.08-.38-.09-.16-.24-.31-.45-.43-.09-.05-.38-.2-.88-.47-.79-.42-1.13-.84-1.13-1.38,0-.84.7-1.4,1.74-1.4.3,0,.62.04.89.13.22.07.34.14.64.31l-.3.54h0Z"/>
      <path class="cls-1" d="M119.13,142.46c-.4-.28-.78-.4-1.3-.4-1.12,0-1.92.86-1.92,2.07,0,1.33.81,2.2,2.05,2.2.45,0,.79-.07,1.22-.25l.18.51c-.32.14-.45.19-.71.26-.26.06-.48.09-.73.09-1.59,0-2.72-1.14-2.72-2.77s1.14-2.71,2.66-2.71c.34,0,.68.06.99.18.23.08.34.14.61.33l-.33.5h0Z"/>
      <path class="cls-1" d="M130.06,144.19c0,1.19-.87,2.17-1.93,2.17s-1.94-.98-1.94-2.17.87-2.16,1.94-2.16,1.93.98,1.93,2.16h0ZM130.78,144.19c0-1.58-1.11-2.74-2.65-2.74s-2.66,1.15-2.66,2.74,1.12,2.74,2.66,2.74,2.65-1.15,2.65-2.74h0Z"/>
      <polygon class="cls-1" points="137.49 146.83 137.49 141.55 138.15 141.55 138.15 146.28 140.51 146.28 140.51 146.83 137.49 146.83 137.49 146.83"/>
      <path class="cls-1" d="M149.26,144.67h-1.72l.86-2.42.86,2.42h0ZM150.72,146.83l-1.96-5.43h-.7l-1.97,5.43h.7l.54-1.56h2.14l.54,1.56h.7Z"/>
      <polygon class="cls-1" points="157.09 146.83 157.09 141.55 157.75 141.55 157.75 146.83 157.09 146.83 157.09 146.83"/>
      <path class="cls-1" d="M167.5,142.98c0,.68-.36,1.03-1.06,1.03h-.86v-1.91h.86c.47,0,.61.02.77.15.19.15.29.39.29.73h0ZM168.5,146.83l-1.56-2.36c.39-.09.58-.18.8-.4.3-.28.46-.68.46-1.1s-.16-.78-.42-1.03c-.3-.3-.61-.39-1.25-.39h-1.61v5.28h.66v-2.26h.7l1.46,2.26h.75Z"/>
      <polygon class="cls-1" points="175.05 146.83 175.05 141.55 178.01 141.55 178.01 142.1 175.7 142.1 175.7 143.87 177.61 143.87 177.61 144.42 175.7 144.42 175.7 146.28 178.09 146.28 178.09 146.83 175.05 146.83 175.05 146.83"/>
      <path class="cls-1" d="M31.04,204.18c-.27-.16-.38-.22-.55-.27-.2-.06-.52-.11-.73-.11-.6,0-1.01.3-1.01.74,0,.39.23.59,1.3,1.16.36.19.64.37.83.54.26.22.41.58.41.96,0,.9-.67,1.47-1.74,1.47-.36,0-.7-.06-.98-.18-.2-.08-.34-.16-.68-.39l.34-.52c.3.2.42.27.61.34.23.09.49.14.76.14.62,0,1-.29,1-.8,0-.15-.02-.28-.08-.38-.09-.16-.24-.31-.45-.43-.09-.05-.38-.2-.88-.47-.79-.42-1.13-.84-1.13-1.38,0-.84.7-1.4,1.74-1.4.3,0,.62.04.89.13.22.07.34.14.64.31l-.3.54h0Z"/>
      <path class="cls-1" d="M41.54,204.19c-.4-.28-.78-.4-1.3-.4-1.12,0-1.92.86-1.92,2.07,0,1.33.81,2.2,2.05,2.2.45,0,.79-.07,1.22-.25l.18.51c-.32.14-.45.19-.71.26-.26.06-.48.09-.73.09-1.59,0-2.72-1.14-2.72-2.77s1.14-2.71,2.66-2.71c.34,0,.68.06.99.18.23.08.34.14.61.33l-.33.5h0Z"/>
      <polygon class="cls-1" points="52.13 208.56 52.13 206.15 49.02 206.15 49.02 208.56 48.37 208.56 48.37 203.28 49.02 203.28 49.02 205.55 52.13 205.55 52.13 203.28 52.79 203.28 52.79 208.56 52.13 208.56 52.13 208.56"/>
      <path class="cls-1" d="M64.09,205.92c0,1.19-.87,2.17-1.93,2.17s-1.94-.98-1.94-2.17.87-2.16,1.94-2.16,1.93.98,1.93,2.16h0ZM64.81,205.92c0-1.58-1.11-2.74-2.65-2.74s-2.66,1.15-2.66,2.74,1.12,2.74,2.66,2.74,2.65-1.15,2.65-2.74h0Z"/>
      <path class="cls-1" d="M75.63,205.92c0,1.19-.87,2.17-1.93,2.17s-1.94-.98-1.94-2.17.87-2.16,1.94-2.16,1.93.98,1.93,2.16h0ZM76.35,205.92c0-1.58-1.11-2.74-2.65-2.74s-2.66,1.15-2.66,2.74,1.12,2.74,2.66,2.74,2.65-1.15,2.65-2.74h0Z"/>
      <polygon class="cls-1" points="83.06 208.56 83.06 203.28 83.72 203.28 83.72 208.01 86.08 208.01 86.08 208.56 83.06 208.56 83.06 208.56"/>
      <path class="cls-1" d="M103.63,205.89c0,.58-.26,1.23-.65,1.64-.34.34-.73.48-1.42.48h-1v-4.18h1c1.19,0,2.07.88,2.07,2.06h0ZM104.32,205.9c0-1.52-1.11-2.62-2.66-2.62h-1.76v5.28h1.75c.92,0,1.47-.21,1.95-.77.46-.52.71-1.21.71-1.9h0Z"/>
      <polygon class="cls-1" points="111.03 208.56 111.03 203.28 111.69 203.28 111.69 208.56 111.03 208.56 111.03 208.56"/>
      <path class="cls-1" d="M120.54,208.7h-.4l-2.08-5.42h.7l1.56,4.12c.03.07.05.15.06.26,0-.1.02-.17.05-.26l1.5-4.12h.66l-2.05,5.42h0Z"/>
      <polygon class="cls-1" points="128.97 208.56 128.97 203.28 129.63 203.28 129.63 208.56 128.97 208.56 128.97 208.56"/>
      <path class="cls-1" d="M139.48,204.18c-.27-.16-.38-.22-.55-.27-.2-.06-.52-.11-.73-.11-.6,0-1.01.3-1.01.74,0,.39.23.59,1.3,1.16.36.19.64.37.83.54.26.22.41.58.41.96,0,.9-.67,1.47-1.74,1.47-.36,0-.7-.06-.98-.18-.2-.08-.34-.16-.68-.39l.34-.52c.3.2.42.27.61.34.23.09.49.14.76.14.62,0,1-.29,1-.8,0-.15-.02-.28-.08-.38-.09-.16-.24-.31-.45-.43-.09-.05-.38-.2-.88-.47-.79-.42-1.13-.84-1.13-1.38,0-.84.7-1.4,1.74-1.4.3,0,.62.04.89.13.22.07.34.14.64.31l-.3.54h0Z"/>
      <polygon class="cls-1" points="146.53 208.56 146.53 203.28 147.18 203.28 147.18 208.56 146.53 208.56 146.53 208.56"/>
      <path class="cls-1" d="M158.48,205.92c0,1.19-.87,2.17-1.93,2.17s-1.94-.98-1.94-2.17.87-2.16,1.94-2.16,1.93.98,1.93,2.16h0ZM159.2,205.92c0-1.58-1.11-2.74-2.65-2.74s-2.66,1.15-2.66,2.74,1.12,2.74,2.66,2.74,2.65-1.15,2.65-2.74h0Z"/>
      <path class="cls-1" d="M169.48,208.61l-2.66-4.12s-.06-.1-.1-.18c-.03-.06-.06-.09-.06-.12-.03-.06-.05-.1-.08-.2v4.58h-.66v-5.28h.86l2.62,4.02s.05.08.07.13c.03.08.04.09.1.24,0,.02.02.05.03.08v-4.47h.66v5.33h-.76Z"/>
      <path class="cls-1" d="M0,185.76c.72-.99,1.21-2.56,1.21-4.41v-15.34c0-2.88-.31-3.38-.86-4.41h5.71c-.54,1.04-.85,1.53-.85,4.41v16.95h3.06c2.79,0,4.91-.64,6.13-1.09l-1.28,3.89H0Z"/>
      <path class="cls-1" d="M24.37,174.84c0-4.8,2.32-8.16,6.64-8.16s7.04,3.76,7.04,8.44-2.72,8.24-6.64,8.24c-4.36,0-7.04-3.4-7.04-8.52h0ZM31.09,186.16c6.44,0,11.4-4.96,11.4-11.12s-4.92-11.16-11.12-11.16c-6.6,0-11.44,5.08-11.44,11.24s5,11.04,11.16,11.04h0Z"/>
      <path class="cls-1" d="M64.23,183.92c-1.12.68-3.48,2.24-6.56,2.24-5.44,0-6.88-4.2-6.88-7.36v-10.6c0-2.56-.28-3-.76-3.92h5.52c-.48.92-.76,1.36-.76,3.92v7.76c0,2.24,0,7.4,4.72,7.4,4.36,0,4.68-3.76,4.68-6.68v-8.48c0-2.56-.28-3-.76-3.92h5.52c-.48.92-.76,1.36-.76,3.92v13.36c0,2.56.6,3.6.92,4.2h-4.88v-1.84h0Z"/>
      <path class="cls-1" d="M90.97,180.92c1.64,1.32,2.8,2.44,5.32,2.44,2.16,0,3.84-1.24,3.84-3.08,0-4.04-9.16-3.68-9.16-9.96,0-3.56,2.96-6.44,7-6.44,1.96,0,3.76.6,4.84.84l-.2,3.8c-1.04-.72-2.52-1.84-4.52-1.84-1.88,0-3.32,1.16-3.32,2.6,0,4,9.16,4.12,9.16,10.12,0,3.6-3.4,6.76-7.36,6.76-2.4,0-4.56-.72-5.8-1.04l.2-4.2h0Z"/>
      <path class="cls-1" d="M165.46,185.76c.48-.92.76-1.36.76-3.92v-13.64c0-2.56-.28-3-.76-3.92h12.56l-1.12,3.52c-1.8-.6-2.2-.72-5.2-.72-.4,0-1.08,0-1.48.08v6.24h6.92l-1.12,3.32c-1.32-.28-2.48-.52-3.76-.52-.6,0-1.36.04-2.04.08v6.6c.48.04,1.16.08,1.64.08,3.48,0,4.96-.44,6.48-.88l-1.16,3.68h-11.72Z"/>
      <path class="cls-1" d="M185.38,185.76c.64-.88,1.08-2.28,1.08-3.92v-13.64c0-2.56-.28-3-.76-3.92h5.52c-.48.92-.76,1.36-.76,3.92v14.76h2.72c2.48,0,4.4-.68,5.48-1.08l-1.28,3.88h-12Z"/>
      <path class="cls-1" d="M78.03,168.85v12.99c0,2.56-.28,3-.76,3.92h5.52c-.48-.92-.76-1.36-.76-3.92v-12.99h-4Z"/>
      <path class="cls-1" d="M82.79,164.28h-5.52c.37.71.62,1.15.72,2.49h4.09c.09-1.34.34-1.78.72-2.49h0Z"/>
      <path class="cls-1" d="M152.52,168.85v12.99c0,2.56-.28,3-.76,3.92h5.52c-.48-.92-.76-1.36-.76-3.92v-12.99h-4Z"/>
      <path class="cls-1" d="M157.28,164.28h-5.52c.37.71.62,1.15.72,2.49h4.09c.1-1.34.34-1.78.72-2.49h0Z"/>
      <path class="cls-1" d="M131.5,164.61c2.52,0,6.29-.28,6.55,3.81.16,2.6-.7,4.9-3.31,4.9-.42,0-.8-.04-1.18-.04v1.17h0s1.44,2.6,3.01,5.14c1.31,2.13,2.68,4.18,3.63,4.9,2.1,1.58,5.17,1.27,5.17,1.27-.66-.65-2.82-3.45-4.4-6.16-1.35-2.32-2.39-4.66-2.39-4.66,1.89-.72,3.92-2.69,3.66-6.92-.11-1.75-.67-3.72-2.48-5.11-1.29-.99-3.08-1.44-7.26-1.44-2.12,0-2.58.13-5.91.13.45,1.04.9,1.84.9,3.55v15.16c0,3.29-.09,3.51-.81,5.45h5.58c-.63-1.53-.77-2.38-.77-5.54v-15.62h0Z"/>
    </g>
  </g>
</svg>