<?xml version="1.0" encoding="UTF-8"?>
<svg id="Layer_2" data-name="Layer 2" xmlns="http://www.w3.org/2000/svg" xmlns:xlink="http://www.w3.org/1999/xlink" viewBox="0 0 49.33 61.67">
  <defs>
    <style>
      .cls-1 {
        fill: #b23427;
      }

      .cls-2 {
        fill: none;
      }

      .cls-3 {
        clip-path: url(#clippath-1);
      }

      .cls-4 {
        clip-path: url(#clippath-2);
      }

      .cls-5 {
        clip-path: url(#clippath);
      }
    </style>
    <clipPath id="clippath">
      <rect class="cls-2" width="24" height="50.47"/>
    </clipPath>
    <clipPath id="clippath-1">
      <rect class="cls-2" x="25.33" width="24" height="50.47"/>
    </clipPath>
    <clipPath id="clippath-2">
      <rect class="cls-2" x="22.67" y="47.8" width="4" height="13.86"/>
    </clipPath>
  </defs>
  <g id="Layer_1-2" data-name="Layer 1">
    <g>
      <g class="cls-5">
        <path class="cls-1" d="M13.06,50.16c3.3,0,6.96-1.54,10.56-4.44v-2.97l-16.23-9.01c-.5-.28-.69-.91-.4-1.4.28-.5.91-.69,1.4-.4l15.24,8.44v-10.47l-10.15-6.45c-.31-.2-.49-.53-.48-.91.02-.38.22-.7.55-.85.33-.17.72-.14,1.03.04l9.04,5.74v-10.43l-6.75-4.89c-.31-.2-.48-.58-.43-.94s.27-.68.61-.84c.32-.14.73-.1,1.03.12l5.54,4.02V.12C15.18,4.29,8.61,10.2,4.61,17.31,1.04,23.67-.32,30.71.75,37.14c.69,3.93,2.22,7.24,4.43,9.55,2.19,2.29,4.91,3.47,7.88,3.47Z"/>
      </g>
      <g class="cls-3">
        <path class="cls-1" d="M25.67,0v14.63l5.66-4.14c.29-.22.7-.28,1.03-.12.32.14.58.48.61.84.04.38-.12.71-.43.94l-6.87,4.99v10.39l9.16-5.83c.31-.2.7-.2,1.03-.03.32.17.53.49.55.85.02.38-.17.72-.48.91l-10.27,6.53v10.48l15.36-8.53c.49-.28,1.11-.1,1.4.39.27.49.1,1.11-.4,1.4l-16.37,9.09v2.75c3.76,3.18,7.4,4.8,10.89,4.8,2.99,0,5.71-1.21,7.86-3.48,2.22-2.34,3.71-5.68,4.38-9.67C50.81,25.02,44.42,8.92,25.67,0Z"/>
      </g>
      <g class="cls-4">
        <path class="cls-1" d="M23.62,60.51c0,.58.44,1.02,1.03,1.02s1.03-.44,1.03-1.02v-12.2h-2.05v12.2Z"/>
      </g>
    </g>
  </g>
</svg>