<?xml version="1.0" encoding="UTF-8"?>
<svg id="Layer_2" data-name="Layer 2" xmlns="http://www.w3.org/2000/svg" viewBox="0 0 77.7 78.8">
  <defs>
    <style>
      .cls-1 {
        fill: #b23428;
      }
    </style>
  </defs>
  <g id="Layer_1-2" data-name="Layer 1">
    <path class="cls-1" d="M34.14,36.67c-.04,2.56-2.03,4.5-4.57,4.48-2.58-.02-4.52-2.04-4.48-4.66.03-2.47,2.04-4.46,4.5-4.46,2.52-.01,4.59,2.11,4.55,4.64Z"/>
    <path class="cls-1" d="M38.85,0C17.39,0,0,17.64,0,39.4s17.39,39.4,38.85,39.4,38.85-17.64,38.85-39.4S60.31,0,38.85,0ZM14.53,22.54c.09-.54.45-1.14.87-1.5,4.41-3.75,8.83-7.47,13.28-11.17.54-.45,1.06-.67,1.58-.67s1.09.24,1.66.72c4.32,3.63,8.65,7.28,12.97,10.92,1.1.92,1.42,1.82,1.03,2.87-.36.99-1.2,1.46-2.57,1.46-4.38.01-8.75.01-13.13,0-4.41,0-8.81.02-13.23,0-1.67-.01-2.74-1.11-2.46-2.63ZM64.74,63.4c-.31.26-.67.46-1.06.58-.25.08-.52.13-.79.14-.74.02-1.45-.02-2.13-.14-2.37-.4-4.36-1.64-5.8-3.79-2.61-3.91-5.04-7.94-7.53-11.94-1.39-2.24-3.47-3.12-5.99-2.42-.22.06-.44.6-.44.92-.03,3.85-.02,7.68-.01,11.53,0,1.11.01,2.22-.01,3.33-.02,1.17-.55,2.03-1.41,2.37-.26.1-.55.16-.87.16-.3,0-.57-.05-.83-.16-.87-.33-1.44-1.21-1.44-2.37-.02-4.89-.03-9.77.01-14.66,0-.95-.29-1.19-1.2-1.18-3.75.05-7.49.07-11.24,0-1.06-.02-1.26.33-1.25,1.32.05,4.84.03,9.7.02,14.55,0,1.15-.53,2.01-1.45,2.34-.02.01-.05.02-.07.03-.6.19-1.19.2-1.69-.03-.29-.13-.54-.34-.74-.64-.27-.4-.46-.92-.54-1.42V27.78c.14-.3.44-.38.97-.38,6.89.03,13.78.03,20.67,0,.92-.01,1.11.32,1.09,1.17-.04,3.06,0,6.13-.04,9.19-.02.87.21,1.14,1.11,1.17,1.69.05,3.42.1,5.05.5,2.43.6,4.27,2.18,5.59,4.32,2.39,3.86,4.8,7.71,7.16,11.59.74,1.2,1.67,1.91,3.15,1.97.64.03,1.23.28,1.71.67.79.65,1.29,1.69,1.27,2.79-.02,1.04-.51,2.01-1.27,2.63Z"/>
  </g>
</svg>