<?xml version="1.0" encoding="UTF-8"?>
<svg id="Layer_2" data-name="Layer 2" xmlns="http://www.w3.org/2000/svg" viewBox="0 0 51.52 54.95">
  <defs>
    <style>
      .cls-1 {
        fill: #b23428;
      }
    </style>
  </defs>
  <g id="Layer_1-2" data-name="Layer 1">
    <g>
      <path class="cls-1" d="M2.5,15.97c-1.67-.01-2.74-1.11-2.46-2.63.09-.54.45-1.14.87-1.5C5.32,8.09,9.74,4.37,14.19.67c.54-.45,1.06-.67,1.58-.67s1.09.24,1.66.72c4.32,3.63,8.65,7.28,12.97,10.92,1.1.92,1.42,1.82,1.03,2.87-.36.99-1.2,1.46-2.57,1.46-4.38.01-8.75.01-13.13,0-4.41,0-8.81.02-13.23,0Z"/>
      <path class="cls-1" d="M50.25,48.78c-.48-.39-1.07-.64-1.71-.67-1.48-.06-2.41-.77-3.15-1.97-2.36-3.88-4.77-7.73-7.16-11.59-1.32-2.14-3.16-3.72-5.59-4.32-1.63-.4-3.36-.45-5.05-.5-.9-.03-1.13-.3-1.11-1.17.04-3.06,0-6.13.04-9.19.02-.85-.17-1.18-1.09-1.17-6.89.03-13.78.03-20.67,0-.53,0-.83.08-.97.38v34.14c.08.5.27,1.02.54,1.42.2.3.45.51.74.64.5.23,1.09.22,1.69.03.02-.01.05-.02.07-.03.92-.33,1.45-1.19,1.45-2.34.01-4.85.03-9.71-.02-14.55-.01-.99.19-1.34,1.25-1.32,3.75.07,7.49.05,11.24,0,.91-.01,1.2.23,1.2,1.18-.04,4.89-.03,9.77-.01,14.66,0,1.16.57,2.04,1.44,2.37.26.11.53.16.83.16.32,0,.61-.06.87-.16.86-.34,1.39-1.2,1.41-2.37.02-1.11.01-2.22.01-3.33-.01-3.85-.02-7.68.01-11.53,0-.32.22-.86.44-.92,2.52-.7,4.6.18,5.99,2.42,2.49,4,4.92,8.03,7.53,11.94,1.44,2.15,3.43,3.39,5.8,3.79.68.12,1.39.16,2.13.14.27-.01.54-.06.79-.14.39-.12.75-.32,1.06-.58.76-.62,1.25-1.59,1.27-2.63.02-1.1-.48-2.14-1.27-2.79ZM15.08,31.95c-2.58-.02-4.52-2.04-4.48-4.66.03-2.47,2.04-4.46,4.5-4.46,2.52,0,4.59,2.11,4.55,4.64-.04,2.56-2.03,4.5-4.57,4.48Z"/>
    </g>
  </g>
</svg>