<?xml version="1.0" encoding="UTF-8"?>
<svg id="Layer_2" data-name="Layer 2" xmlns="http://www.w3.org/2000/svg" xmlns:xlink="http://www.w3.org/1999/xlink" viewBox="0 0 61.69 55.29">
  <defs>
    <style>
      .cls-1 {
        fill: #b23427;
      }

      .cls-2 {
        fill: none;
      }

      .cls-3 {
        clip-path: url(#clippath-1);
      }

      .cls-4 {
        clip-path: url(#clippath);
      }
    </style>
    <clipPath id="clippath">
      <rect class="cls-2" x="1.72" width="57.33" height="18.09"/>
    </clipPath>
    <clipPath id="clippath-1">
      <rect class="cls-2" y="50.09" width="61.69" height="5.19"/>
    </clipPath>
  </defs>
  <g id="Layer_1-2" data-name="Layer 1">
    <g>
      <g class="cls-4">
        <path class="cls-1" d="M2.91,18.01c0-.91-.03-1.79.02-2.67.01-.18.24-.41.43-.51,3.64-1.99,7.28-3.96,10.93-5.94C19.61,6.01,24.95,3.11,30.27.21c.36-.2.63-.21,1-.01,8.93,4.86,17.88,9.71,26.82,14.54.43.23.6.48.57.97-.05.74-.01,1.49-.01,2.29H2.91ZM30.76,14.97c2.18.02,4-1.78,4.04-3.97.03-2.17-1.76-4.01-3.96-4.05s-4.06,1.79-4.06,4c-.01,2.18,1.79,4,3.98,4.02Z"/>
      </g>
      <g class="cls-3">
        <path class="cls-1" d="M61.48,50.93v3.97H.05v-3.97h61.44Z"/>
      </g>
      <path class="cls-1" d="M57.08,45.1v3.55H4.48v-3.55h52.6Z"/>
      <path class="cls-1" d="M23.49,42.84h-4.76v-22.57h4.76v22.57Z"/>
      <path class="cls-1" d="M38.05,42.83v-22.55h4.78v22.55h-4.78Z"/>
      <path class="cls-1" d="M28.42,20.27h4.73v22.55h-4.73v-22.55Z"/>
      <path class="cls-1" d="M47.73,20.27h4.74v22.56h-4.74v-22.56Z"/>
      <path class="cls-1" d="M9.08,20.27h4.74v22.57h-4.74v-22.57Z"/>
    </g>
  </g>
</svg>