<?xml version="1.0" encoding="UTF-8"?>
<svg id="Layer_2" data-name="Layer 2" xmlns="http://www.w3.org/2000/svg" xmlns:xlink="http://www.w3.org/1999/xlink" viewBox="0 0 61.69 61.69">
  <defs>
    <style>
      .cls-1 {
        fill: #b23427;
      }

      .cls-2 {
        fill: #fff;
      }

      .cls-3 {
        fill: none;
      }

      .cls-4 {
        clip-path: url(#clippath);
      }
    </style>
    <clipPath id="clippath">
      <rect class="cls-3" width="61.69" height="61.69"/>
    </clipPath>
  </defs>
  <g id="Layer_1-2" data-name="Layer 1">
    <g>
      <g class="cls-4">
        <path class="cls-1" d="M61.53,30.77c0,1.01-.05,2.01-.15,3.02-.1,1-.24,1.99-.44,2.98s-.44,1.96-.73,2.93c-.29.97-.63,1.91-1.02,2.84s-.82,1.84-1.29,2.73c-.47.89-.99,1.76-1.55,2.59-.56.84-1.16,1.65-1.8,2.43s-1.32,1.53-2.03,2.23-1.46,1.39-2.24,2.03c-.78.64-1.59,1.24-2.42,1.8-.84.56-1.7,1.08-2.59,1.55-.89.47-1.8.91-2.73,1.29-.93.39-1.88.72-2.84,1.02-.97.29-1.94.54-2.93.73-.98.2-1.98.34-2.98.44-1.01.1-2.01.15-3.02.15s-2.02-.05-3.02-.15c-1.01-.1-2-.24-2.98-.44-.99-.2-1.97-.44-2.93-.73s-1.91-.63-2.84-1.02c-.93-.39-1.84-.82-2.73-1.29-.89-.47-1.75-.99-2.59-1.55-.84-.56-1.65-1.16-2.42-1.8-.78-.64-1.53-1.32-2.24-2.03-.71-.71-1.39-1.45-2.03-2.23s-1.24-1.59-1.8-2.43c-.56-.83-1.08-1.7-1.55-2.59-.48-.89-.91-1.8-1.29-2.73s-.72-1.88-1.02-2.84c-.29-.96-.54-1.94-.73-2.93-.2-.99-.34-1.98-.44-2.98C.05,32.78,0,31.77,0,30.77s.05-2.02.15-3.02c.1-1.01.24-2,.44-2.99.19-.98.44-1.96.73-2.93.3-.96.64-1.91,1.02-2.84.39-.93.81-1.84,1.29-2.73.47-.89.99-1.75,1.55-2.59.56-.84,1.16-1.65,1.8-2.43.64-.78,1.31-1.52,2.03-2.23s1.46-1.39,2.24-2.03c.78-.64,1.58-1.24,2.42-1.8.84-.56,1.7-1.07,2.59-1.55.89-.47,1.8-.9,2.73-1.29.93-.39,1.88-.73,2.84-1.02s1.94-.54,2.93-.73c.98-.19,1.98-.34,2.98-.44C28.75.05,29.76,0,30.77,0s2.01.05,3.02.15c1,.1,2,.25,2.98.44.99.2,1.96.44,2.93.73.96.29,1.91.64,2.84,1.02.93.39,1.84.81,2.73,1.29.89.48,1.76.99,2.59,1.55.83.56,1.65,1.16,2.42,1.8.78.64,1.53,1.31,2.24,2.03.71.71,1.39,1.46,2.03,2.23.64.78,1.24,1.59,1.8,2.43.56.84,1.08,1.7,1.55,2.59.47.89.91,1.8,1.29,2.73.39.93.72,1.88,1.02,2.84.3.96.54,1.94.73,2.93.2.99.34,1.98.44,2.99.1,1,.15,2.01.15,3.02Z"/>
      </g>
      <path class="cls-2" d="M37.14,35.45h-1.29v-18.99h-1.08v19h-8.23v-19h-1.08v19h-1.06c-.3,0-.54.23-.55.54v3.36c0,.31.24.56.55.57h12.73c.31-.01.54-.26.56-.57v-3.36c0-.31-.25-.55-.54-.55Z"/>
      <path class="cls-2" d="M16.31,13.08h1.92v35.38h-1.92V13.08Z"/>
      <path class="cls-2" d="M19.31,14.69h22.92v1.23h-22.92v-1.23Z"/>
      <path class="cls-2" d="M43.31,13.08h1.92v35.38h-1.92V13.08Z"/>
    </g>
  </g>
</svg>