<?xml version="1.0" encoding="UTF-8"?>
<svg id="Layer_2" data-name="Layer 2" xmlns="http://www.w3.org/2000/svg" xmlns:xlink="http://www.w3.org/1999/xlink" viewBox="0 0 66.49 76.91">
  <defs>
    <style>
      .cls-1 {
        fill: #b23427;
      }

      .cls-2 {
        fill: none;
      }

      .cls-3 {
        clip-path: url(#clippath);
      }
    </style>
    <clipPath id="clippath">
      <rect class="cls-2" width="66.49" height="76.91"/>
    </clipPath>
  </defs>
  <g id="Layer_1-2" data-name="Layer 1">
    <g class="cls-3">
      <path class="cls-1" d="M57.66-.05H8.56c-.54,0-1.07.06-1.6.17-.53.1-1.05.27-1.54.47-.5.21-.97.46-1.42.77s-.86.65-1.24,1.03-.72.8-1.02,1.25c-.3.45-.55.93-.76,1.43-.2.5-.36,1.02-.46,1.55s-.16,1.06-.16,1.6v55.05c0,1.17.24,2.3.72,3.37.48,1.07,1.16,1.99,2.03,2.78v3.13c0,.59.1,1.16.32,1.71.22.55.54,1.03.95,1.45.41.42.89.75,1.44.98.54.23,1.11.35,1.7.35h4.79c.59,0,1.16-.12,1.7-.35s1.03-.56,1.44-.97c.42-.42.74-.91.96-1.45s.33-1.11.33-1.71v-1.02h32.73v1.02c0,.59.1,1.16.33,1.71.22.55.55,1.04.96,1.45.42.42.9.75,1.44.98s1.11.34,1.71.34h4.78c.59,0,1.16-.11,1.71-.35.54-.23,1.02-.55,1.44-.97s.73-.91.95-1.45c.22-.55.33-1.12.32-1.71v-3.13c.87-.79,1.54-1.71,2.02-2.79.47-1.07.71-2.19.71-3.36V8.21c0-.54-.05-1.07-.16-1.6-.1-.53-.26-1.04-.46-1.54s-.46-.97-.76-1.43c-.3-.45-.64-.86-1.02-1.25-.38-.38-.79-.72-1.24-1.03s-.92-.56-1.42-.77c-.5-.21-1.02-.37-1.54-.48-.53-.1-1.06-.16-1.6-.17ZM14.6,63.23c-.2.02-.39.02-.58,0-.36,0-.72-.03-1.08-.09-.35-.07-.7-.17-1.04-.3-.34-.14-.66-.3-.96-.49-.31-.2-.59-.42-.85-.68-.26-.25-.49-.53-.7-.83-.21-.3-.38-.61-.53-.95-.14-.33-.25-.68-.33-1.03-.07-.35-.11-.71-.12-1.07,0-.36.03-.72.09-1.08.07-.35.17-.7.31-1.04.14-.34.3-.66.5-.96.2-.31.42-.59.68-.84.26-.26.53-.49.83-.7.3-.2.61-.38.95-.52s.68-.25,1.04-.32.71-.11,1.08-.11c.36,0,.72.03,1.08.1.35.07.7.17,1.04.31.33.14.66.31.96.51.3.2.58.43.84.69.26.26.48.53.69.83s.38.62.52.95c.14.33.24.68.31,1.04s.11.71.11,1.08v.59c-.07.63-.23,1.21-.5,1.78-.27.56-.62,1.07-1.06,1.51-.44.45-.94.8-1.51,1.07-.56.28-1.16.44-1.78.51l.02.04ZM29.73,44.01H8.56c-.36,0-.71-.07-1.05-.21-.34-.14-.63-.34-.89-.59-.26-.26-.45-.56-.59-.9-.14-.34-.2-.69-.2-1.05v-22.03c0-.36.06-.72.2-1.06.14-.33.33-.64.59-.89.26-.26.55-.46.89-.6.33-.14.68-.21,1.05-.21h21.15c.19,0,.35.08.48.22.13.14.19.31.19.49v26.13c0,.19-.06.35-.19.49-.14.14-.3.21-.48.21h.02ZM33.1,10.96H8.63c-.35,0-.7-.05-1.03-.18-.33-.13-.63-.31-.89-.55-.26-.24-.46-.53-.61-.85-.15-.32-.23-.66-.26-1.02v-.15c0-.36.06-.71.2-1.05s.33-.64.59-.9c.26-.26.55-.46.89-.6.33-.14.68-.21,1.05-.21h49.04c.35,0,.7.06,1.03.19s.63.32.89.56.46.53.61.85c.15.33.23.67.25,1.02v.13c0,.36-.07.71-.2,1.05-.14.34-.33.64-.59.89-.26.26-.55.46-.89.6s-.68.21-1.05.21h-24.56ZM36.51,16.46h21.16c.36,0,.71.08,1.05.22s.63.34.89.6c.26.26.45.56.59.89.14.34.21.69.2,1.05v22.03c0,.36-.07.71-.2,1.05-.14.34-.33.64-.59.89-.26.26-.55.46-.89.6s-.68.21-1.05.21h-21.15c-.19,0-.35-.07-.48-.21-.13-.14-.19-.3-.19-.49v-26.13c0-.19.06-.35.19-.49s.29-.21.48-.22h-.01ZM46.78,58.35c-.02-.2-.02-.4,0-.59,0-.35.05-.7.12-1.05.07-.35.18-.68.32-1.01s.31-.63.52-.92c.2-.29.43-.56.68-.81.25-.24.53-.46.82-.66s.61-.35.94-.48c.33-.14.67-.23,1.02-.3.35-.06.7-.09,1.05-.09s.7.04,1.05.11c.35.07.68.18,1.01.32.32.14.63.31.92.51.3.2.56.43.81.68.24.26.47.53.66.82s.36.61.49.94c.14.33.23.66.3,1.01s.1.7.09,1.05c0,.35-.04.7-.11,1.05-.07.34-.17.68-.31,1.01-.14.33-.31.64-.51.93-.2.29-.42.56-.67.81s-.52.47-.82.67c-.29.2-.6.36-.93.49-.32.14-.66.24-1.01.31-.34.07-.69.1-1.05.1-.19.02-.39.02-.57,0-.63-.07-1.21-.24-1.78-.51-.56-.27-1.06-.63-1.51-1.07-.44-.44-.79-.95-1.06-1.52-.27-.56-.43-1.16-.49-1.78v-.04Z"/>
    </g>
  </g>
</svg>