<?xml version="1.0" encoding="UTF-8"?>
<svg id="Layer_2" data-name="Layer 2" xmlns="http://www.w3.org/2000/svg" xmlns:xlink="http://www.w3.org/1999/xlink" viewBox="0 0 61.69 61.69">
  <defs>
    <style>
      .cls-1 {
        fill: #b23427;
      }

      .cls-2 {
        clip-path: url(#clippath-6);
      }

      .cls-3 {
        clip-path: url(#clippath-4);
      }

      .cls-4 {
        fill: none;
      }

      .cls-5 {
        clip-path: url(#clippath-1);
      }

      .cls-6 {
        clip-path: url(#clippath-5);
      }

      .cls-7 {
        clip-path: url(#clippath-3);
      }

      .cls-8 {
        clip-path: url(#clippath-2);
      }

      .cls-9 {
        clip-path: url(#clippath);
      }
    </style>
    <clipPath id="clippath">
      <rect class="cls-4" x="34.49" y="21.95" width="24" height="39.74"/>
    </clipPath>
    <clipPath id="clippath-1">
      <rect class="cls-4" x="13.16" width="37.33" height="17.95"/>
    </clipPath>
    <clipPath id="clippath-2">
      <rect class="cls-4" y="27.29" width="30.49" height="25.33"/>
    </clipPath>
    <clipPath id="clippath-3">
      <rect class="cls-4" y="17.95" width="33.16" height="25.33"/>
    </clipPath>
    <clipPath id="clippath-4">
      <rect class="cls-4" x="9.16" y="48.62" width="21.33" height="13.07"/>
    </clipPath>
    <clipPath id="clippath-5">
      <rect class="cls-4" x="7.83" width="17.33" height="12.62"/>
    </clipPath>
    <clipPath id="clippath-6">
      <rect class="cls-4" x="57.16" y="24.62" width="4.53" height="21.33"/>
    </clipPath>
  </defs>
  <g id="Layer_1-2" data-name="Layer 1">
    <g>
      <path class="cls-1" d="M48.33,21.83c.02,1.64.2,3.24.15,4.89-.34,11.19-4.93,22.38-12.38,30.68-.32.36-2.69,2.77-2.89,2.82-.7.19-3.65-1.4-4.38-1.86-2.03-1.29-4.11-3.34-5.13-5.52,5.26-3.49,9.26-8.87,11.04-14.95,1.26-4.3,1.38-8.67.84-13.1.1-.3,2.52-1.2,2.98-1.37,3.12-1.09,6.43-1.71,9.75-1.58Z"/>
      <path class="cls-1" d="M60.78,24.23c-2.48-1.68-4.98-3.03-7.95-3.68-6.36-1.38-12.57-.07-18.36,2.63-3.56-1.11-7.18-2.26-10.55-3.87-.28-.14-.65-.29-.91-.44-.09-.05-.29,0-.19-.26.11-.28,2.64-2.42,3.08-2.78,6.55-5.22,15.36-8.51,23.83-7.48.66.08,2.44.35,2.94.66.35.21,1.9,2.09,2.26,2.55,2.86,3.63,5.05,8.09,5.85,12.67Z"/>
      <g class="cls-9">
        <path class="cls-1" d="M56.99,23.97c.24,1.1.47,2.23.61,3.36.99,7.75-.36,16.26-4.15,23.11-1.26,2.28-2.4,3.3-4.48,4.82-3.94,2.87-8.83,5.05-13.7,5.58,5.36-5.38,9.74-12.11,12.27-19.31,2.19-6.23,3.06-12.94,2.59-19.54,2.39.08,4.73.96,6.86,1.99h0Z"/>
      </g>
      <path class="cls-1" d="M33.75,24.85c.45,3.33.56,7.06-.18,10.36-.04.19-.03.67-.3.55-9.1-3.52-17.9-8.14-25.59-14.17-1.28-1-2.74-2.17-3.92-3.28-.2-.19-.72-.62-.72-.88,0-.48,1.42-2.77,1.77-3.33.33-.52,2.36-3.58,2.76-3.51,7.18,7.04,16.65,11.36,26.18,14.26Z"/>
      <g class="cls-5">
        <path class="cls-1" d="M49.82,6.38c.04.23-.21.16-.38.16-.43-.01-.79-.15-1.19-.17-10.09-.39-19.01,3.81-26.27,10.51-.28.26-.43.86-.9.91-.63.06-7.29-4.02-7.4-4.46.42-1.29,1.39-2.66,2.23-3.72,2.93-3.67,7.26-6.66,11.62-8.33,3.62-1.39,5.43-1.58,9.26-.85,4.84.91,9.08,3.1,13.02,5.96Z"/>
      </g>
      <g class="cls-8">
        <path class="cls-1" d="M29.87,44.04c-1.89,3.11-4.63,5.76-7.73,7.65-5.67-1.2-11.46-3.31-16.35-6.44-.63-.41-2.89-1.89-3.19-2.36-.26-.4-.61-1.42-.79-1.91C.36,36.98-.1,32.66.02,28.43c.26-.07.3.11.45.22.92.7,2.22,2.46,3.22,3.38,7.16,6.57,16.68,10.39,26.18,12Z"/>
      </g>
      <g class="cls-7">
        <path class="cls-1" d="M32.87,37.44c.19.22-.83,2.68-1.02,3.1-.19.41-.78,1.82-1.15,1.85-10.25-1.72-21.18-6.26-28.21-14.1-.35-.4-1.82-2.07-1.94-2.41-.44-1.29,1.26-5.14,1.57-6.59,3.38,2.94,6.9,5.71,10.66,8.16,6.23,4.05,13.08,7.53,20.09,9.99Z"/>
      </g>
      <g class="cls-3">
        <path class="cls-1" d="M30.32,61.29c-5.2-.19-10.47-1.53-14.95-4.18-2.64-1.56-4.18-4.83-5.45-7.52,1.82.67,3.58,1.52,5.43,2.14,2.09.7,4.26,1.22,6.42,1.68,1.36,2.34,3.22,4.41,5.44,5.96,1.02.71,2.11,1.2,3.11,1.92Z"/>
      </g>
      <g class="cls-6">
        <path class="cls-1" d="M24.62.53l-4.7,2.88c-3.09,2.36-6.08,5.27-7.76,8.82-1.31-.83-2.35-1.98-3.44-3.07C13.06,4.89,18.55,1.52,24.62.53Z"/>
      </g>
      <g class="cls-2">
        <path class="cls-1" d="M57.78,44.93c.19-.76.46-1.51.65-2.28.96-3.94,1.51-8.28,1.3-12.35-.08-1.63-.44-3.26-.53-4.88l2.15,1.76c.55,4.82-.11,10.04-1.89,14.55-.41,1.04-1.02,2.33-1.68,3.2Z"/>
      </g>
    </g>
  </g>
</svg>