<?xml version="1.0" encoding="UTF-8"?>
<svg id="Layer_2" data-name="Layer 2" xmlns="http://www.w3.org/2000/svg" viewBox="0 0 111.26 111.91">
  <g id="Layer_1-2" data-name="Layer 1">
    <path d="M55.67,80.74c3.59.05,6.47,3,6.43,6.59v.2c.15,3.6-2.62,6.64-6.22,6.8-3.59.16-6.65-2.62-6.8-6.22-.02-.19-.02-.38,0-.58-.16-3.59,2.63-6.63,6.23-6.78.12,0,.23,0,.36,0ZM55.35,20.77c.16,0,.33,0,.49,0,4.03.12,7.18,3.49,7.07,7.51,0,.07-.02.15-.02.22l-2.24,38.95h-.02c-.21,2.77-2.64,4.82-5.42,4.6-2.44-.2-4.39-2.14-4.59-4.6l-2.28-38.95c-.25-4.02,2.82-7.47,6.84-7.72.07,0,.14,0,.22,0h-.04ZM54.2.01C23.96.79-.11,25.59,0,55.84c-.25,30.73,24.45,55.82,55.18,56.07s55.83-24.46,56.08-55.18v-.9C111.38,25.12,86.55.11,55.85,0c-.54,0-1.09,0-1.62,0h-.02"/>
  </g>
</svg>