<?xml version="1.0" encoding="UTF-8"?>
<svg id="Layer_2" data-name="Layer 2" xmlns="http://www.w3.org/2000/svg" xmlns:xlink="http://www.w3.org/1999/xlink" viewBox="0 0 140 199">
  <defs>
    <style>
      .cls-1 {
        fill: #000;
      }

      .cls-1, .cls-2 {
        stroke-width: 0px;
      }

      .cls-2 {
        fill: none;
      }

      .cls-3 {
        clip-path: url(#clippath);
      }
    </style>
    <clipPath id="clippath">
      <rect class="cls-2" width="140" height="199"/>
    </clipPath>
  </defs>
  <g id="Layer_1-2" data-name="Layer 1">
    <g>
      <path class="cls-1" d="M110,154.15c0-11.34-5.06-22.05-13.69-29.4l-25.91-21.42-25.7,21.42c-8.85,7.35-13.69,18.06-13.69,29.4v17.85h79v-17.85Z"/>
      <g class="cls-3">
        <path class="cls-1" d="M12,153.83v26.17h-6.72c-2.96,0-5.28,2.35-5.28,5.34v8.41c0,2.9,2.35,5.25,5.25,5.25h130.48c2.91,0,5.27-2.36,5.27-5.27v-8.48c0-2.9-2.35-5.25-5.25-5.25h-6.75v-26.3c0-17.04-7.36-32.82-20.42-43.76l-13.26-10.94,13.26-10.94c13.05-10.94,20.42-26.93,20.42-43.76v-26.3h5.75c2.94,0,5.25-2.32,5.25-5.27V4.28c0-2.95-2.31-5.28-5.25-5.28H5.25C2.31-1,0,1.33,0,4.28v8.45c0,2.95,2.31,5.27,5.25,5.27h7.75v26.22c-.73,17.01,6.64,32.76,19.68,43.67l13.05,11.13-13.26,10.92c-12.84,10.92-20.42,26.88-20.48,43.89ZM39.21,117.92l17.89-14.91c1.27-1.05,1.9-2.52,1.9-3.99s-.63-2.94-1.9-3.99l-17.89-14.91c-10.73-8.82-17.21-35.69-17.21-35.69v-26.44h96v26.05c0,13.87-6.11,26.89-16.84,35.72l-17.89,14.92c-1.26,1.05-1.9,2.52-1.9,3.99s.64,2.94,1.9,3.99l17.89,15.13c10.74,8.83,16.84,21.85,16.84,35.72v26.47H22v-26.17c.37-13.86,6.69-26.88,17.21-35.91Z"/>
      </g>
    </g>
  </g>
</svg>