<?xml version="1.0" encoding="UTF-8"?>
<svg id="Layer_2" data-name="Layer 2" xmlns="http://www.w3.org/2000/svg" viewBox="0 0 3363.46 382.78">
  <defs>
    <style>
      .cls-1 {
        fill: #000;
      }

      .cls-1, .cls-2, .cls-3, .cls-4 {
        stroke-width: 0px;
      }

      .cls-2 {
        fill: #be5247;
      }

      .cls-3 {
        fill: #2ba680;
      }

      .cls-4 {
        fill: #fff;
      }
    </style>
  </defs>
  <g id="Layer_1-2" data-name="Layer 1">
    <g>
      <g>
        <path class="cls-1" d="M79.19,217.04H26.68l-10.33,23.24H0l44.76-97.78h16.53l44.93,97.78h-16.87l-10.16-23.24ZM73.33,203.78l-20.31-46.13-20.48,46.13h40.8Z"/>
        <path class="cls-1" d="M209.67,142.5v97.78h-13.77l-56.46-69.03v69.03h-16.7v-97.78h13.77l56.46,69.37v-69.37h16.7Z"/>
        <path class="cls-1" d="M330,142.5v97.78h-13.77l-56.46-69.03v69.03h-16.7v-97.78h13.77l56.46,69.37v-69.37h16.7Z"/>
        <path class="cls-1" d="M362.37,198.45v-55.95h16.7v55.6c0,19.11,9.3,29.09,26.34,29.09s26.34-9.81,26.34-29.09v-55.6h16.35v55.95c0,27.37-16.01,43.21-42.86,43.21s-42.86-15.84-42.86-43.21Z"/>
        <path class="cls-1" d="M540.2,217.04h-52.5l-10.33,23.24h-16.35l44.76-97.78h16.53l44.93,97.78h-16.87l-10.16-23.24ZM534.35,203.78l-20.31-46.13-20.48,46.13h40.8Z"/>
        <path class="cls-1" d="M583.75,142.5h16.7v83.83h52.5v13.94h-69.2v-97.78Z"/>
        <path class="cls-1" d="M707.01,229.95l6.54-13.08c7.57,6.2,20.14,10.67,33.05,10.67,16.35,0,22.38-6.2,22.38-13.6,0-22.72-59.22-6.89-59.22-43.72,0-17.39,14.98-29.09,39.42-29.09,11.71,0,24.27,2.58,32.88,8.43l-6.03,13.43c-8.43-5.85-18.25-7.75-27.37-7.75-15.66,0-22.21,6.2-22.21,13.94,0,22.55,59.22,7.23,59.22,43.21,0,17.73-14.8,29.26-39.76,29.26-15.15,0-30.81-4.65-38.9-11.71Z"/>
        <path class="cls-1" d="M799.63,191.39c0-28.92,22.72-50.27,53.02-50.27,16.7,0,29.61,4.99,38.56,15.32l-10.67,10.84c-7.57-8.09-16.7-11.71-27.37-11.71-21.17,0-36.67,14.98-36.67,35.81s15.49,35.81,36.67,35.81c10.67,0,19.8-3.79,27.37-11.88l10.67,10.84c-9.12,10.5-22.03,15.49-38.56,15.49-30.3,0-53.02-21.35-53.02-50.27Z"/>
        <path class="cls-1" d="M913.59,142.5h16.7v41.31h53.54v-41.31h16.7v97.78h-16.7v-42.69h-53.54v42.69h-16.7v-97.78Z"/>
        <path class="cls-1" d="M1024.79,191.39c0-28.92,22.72-50.27,53.19-50.27s53.19,21.35,53.19,50.27-22.55,50.27-53.19,50.27-53.19-21.35-53.19-50.27ZM1114.31,191.39c0-20.83-15.49-35.81-36.32-35.81s-36.32,14.98-36.32,35.81,15.49,35.81,36.32,35.81,36.32-14.98,36.32-35.81Z"/>
        <path class="cls-1" d="M1146.33,191.39c0-28.92,22.72-50.27,53.19-50.27s53.19,21.35,53.19,50.27-22.55,50.27-53.19,50.27-53.19-21.35-53.19-50.27ZM1235.85,191.39c0-20.83-15.49-35.81-36.32-35.81s-36.32,14.98-36.32,35.81,15.49,35.81,36.32,35.81,36.32-14.98,36.32-35.81Z"/>
        <path class="cls-1" d="M1276.99,142.5h16.7v83.83h52.5v13.94h-69.2v-97.78Z"/>
        <path class="cls-1" d="M1497.51,213.77c0,16.7-13.08,26.51-38.73,26.51h-48.2v-97.78h45.44c23.41,0,36.32,9.81,36.32,25.3,0,10.33-4.99,17.73-13.08,21.69,11.53,3.27,18.25,11.53,18.25,24.27ZM1427.28,155.24v29.26h27.03c13.6,0,21.35-5.16,21.35-14.63s-7.75-14.63-21.35-14.63h-27.03ZM1480.64,212.39c0-10.5-7.92-15.15-22.72-15.15h-30.64v30.3h30.64c14.8,0,22.72-4.82,22.72-15.15Z"/>
        <path class="cls-1" d="M1520.41,198.45v-55.95h16.7v55.6c0,19.11,9.3,29.09,26.34,29.09s26.34-9.81,26.34-29.09v-55.6h16.35v55.95c0,27.37-16.01,43.21-42.86,43.21s-42.86-15.84-42.86-43.21Z"/>
        <path class="cls-1" d="M1638.5,142.5h16.7v97.78h-16.7v-97.78Z"/>
        <path class="cls-1" d="M1688.43,142.5h16.7v83.83h52.5v13.94h-69.2v-97.78Z"/>
        <path class="cls-1" d="M1775.7,142.5h42.52c33.05,0,54.05,19.28,54.05,48.89s-21,48.89-54.05,48.89h-42.52v-97.78ZM1817.53,226.33c23.93,0,37.87-13.43,37.87-34.95s-13.94-35.12-37.87-35.12h-25.13v70.06h25.13Z"/>
        <path class="cls-1" d="M1896.55,142.5h16.7v97.78h-16.7v-97.78Z"/>
        <path class="cls-1" d="M2033.41,142.5v97.78h-13.77l-56.46-69.03v69.03h-16.7v-97.78h13.77l56.46,69.37v-69.37h16.7Z"/>
        <path class="cls-1" d="M2133.08,190.87h16.18v38.21c-9.47,8.09-23.58,12.57-37.7,12.57-31.16,0-53.88-21.35-53.88-50.27s22.72-50.27,53.19-50.27c17.04,0,30.3,4.99,39.42,15.32l-10.67,10.84c-7.75-8.09-17.21-11.71-28.4-11.71-21.17,0-36.67,14.98-36.67,35.81s15.49,35.81,37.18,35.81c8.09,0,15.15-1.72,21.35-5.51v-30.81Z"/>
        <path class="cls-1" d="M2291.11,240.28l-21-29.26c-1.38.17-2.93.17-4.48.17h-23.24v29.09h-16.7v-97.78h39.94c25.65,0,41.83,12.57,41.83,34.43,0,15.15-7.92,25.82-21.52,30.98l23.24,32.36h-18.08ZM2290.6,176.93c0-13.26-8.95-20.66-25.99-20.66h-22.21v41.31h22.21c17.04,0,25.99-7.4,25.99-20.66Z"/>
        <path class="cls-1" d="M2407.48,226.33v13.94h-73.33v-97.78h71.44v13.77h-54.74v27.54h48.72v13.6h-48.72v28.92h56.64Z"/>
        <path class="cls-1" d="M2519.21,142.5l-43.55,97.78h-16.53l-43.38-97.78h17.9l34.08,77.98,34.6-77.98h16.87Z"/>
        <path class="cls-1" d="M2537.29,142.5h16.7v97.78h-16.7v-97.78Z"/>
        <path class="cls-1" d="M2660.54,226.33v13.94h-73.33v-97.78h71.44v13.77h-54.74v27.54h48.72v13.6h-48.72v28.92h56.64Z"/>
        <path class="cls-1" d="M2826.32,142.5l-33.05,97.78h-17.73l-25.65-75.05-25.65,75.05h-17.9l-33.05-97.78h17.21l25.48,76.6,26.51-76.6h15.66l25.99,77.12,25.99-77.12h16.18Z"/>
      </g>
      <g>
        <g>
          <path class="cls-2" d="M3363.46,191.39c0,27.96-5.99,54.53-16.77,78.47-3.7,8.23-7.98,16.16-12.77,23.72-30.32,47.93-81.34,81.45-140.49,88.02-4.47.49-9,.84-13.56,1.02-2.58.1-5.19.16-7.8.16-15.93,0-31.4-1.95-46.19-5.61V5.61c14.79-3.67,30.26-5.61,46.19-5.61,105.7,0,191.39,85.68,191.39,191.39Z"/>
          <g>
            <path class="cls-4" d="M3301.85,228.87c0,11.41,9.25,20.67,20.66,20.67s20.63-9.26,20.63-20.67-9.25-20.68-20.63-20.68-20.66,9.27-20.66,20.68Z"/>
            <g>
              <path class="cls-4" d="M3289.69,199.68c-8.98,22.53-20.34,39.55-36.02,63.12-8.93,13.41-19.04,28.61-31.15,48.35-20.7,33.7-27.17,53.2-29.08,70.46-4.47.49-9,.84-13.56,1.02-5.52-29.52-2.36-69.03,22.8-106.33l23.14-34.57,27.88-40.82c25.34-36.16,28.95-75.15,24.34-97.53-.06-.37.1-.75.44-.91l-.04.04c.33-.2.73-.09,1.01.16,13.75,15.12,26.51,56.42,10.25,97.03Z"/>
              <path class="cls-4" d="M3247.37,51.2c-.34.24-.47.67-.34,1.03,9.08,21.65-.36,54.98-25.97,91.48l-37.06,54.01-18,26.73c-36.92,54.71-21.03,113.33-5.81,139.34.2.32.57.5.93.4.37-.1.61-.44.61-.81l-.07-8.76c-.32-27.7-.63-53.91,29.96-103.69,15.06-24.57,26.57-39.65,35.79-51.77,11.51-15.12,19.86-26.06,27.64-45.54,16.35-40.82,7.14-87.1-6.68-102.29-.26-.31-.73-.37-1.06-.14h.06Z"/>
              <path class="cls-4" d="M3143.27,147.63c0,11.41,9.25,20.67,20.63,20.67s20.63-9.26,20.63-20.67-9.25-20.68-20.63-20.68-20.63,9.27-20.63,20.68Z"/>
              <path class="cls-4" d="M3346.69,269.86c-3.7,8.23-7.98,16.16-12.77,23.72-28.42-4.14-58.01,2.03-82.61,18.83-.29.21-.77.17-1.04-.1-.28-.26-.33-.69-.13-1.03v.03c16.82-27.2,45.9-43.43,77.79-43.43,6.4,0,12.67.67,18.75,1.98Z"/>
            </g>
          </g>
        </g>
        <path class="cls-3" d="M3117.33,8.63c-41.66,10.54-77.8,34.92-103.26,67.96h12.94v44.77h-30.2v-17.95c-14.01,26.39-21.94,56.49-21.94,88.45s7.93,62.06,21.94,88.45v-18.18h30.2v44.79h-13.1c25.46,33.15,61.68,57.61,103.43,68.17.63.16,1.26.31,1.9.47V8.17c-.64.15-1.27.3-1.9.47ZM3027.01,217.35h-30.2v-44.79h30.2v44.79ZM3091.74,306.92h-30.2v-44.79h30.2v44.79ZM3091.74,217.35h-30.2v-44.79h30.2v44.79ZM3091.74,121.37h-30.2v-44.77h30.2v44.77Z"/>
      </g>
    </g>
  </g>
</svg>