<?xml version="1.0" encoding="UTF-8"?>
<svg id="Layer_2" data-name="Layer 2" xmlns="http://www.w3.org/2000/svg" viewBox="0 0 1665.14 348">
  <defs>
    <style>
      .cls-1 {
        fill: #000;
      }

      .cls-1, .cls-2, .cls-3, .cls-4 {
        stroke-width: 0px;
      }

      .cls-2 {
        fill: none;
      }

      .cls-3 {
        fill: #b23428;
      }

      .cls-4 {
        fill: #2ba680;
      }
    </style>
  </defs>
  <g id="Layer_1-2" data-name="Layer 1">
    <g>
      <g>
        <path class="cls-1" d="M270.02,59.5h-21.62l-4.25,10.01h-6.74l18.43-42.11h6.81l18.51,42.11h-6.95l-4.18-10.01ZM267.61,53.79l-8.37-19.87-8.44,19.87h16.8Z"/>
        <path class="cls-1" d="M323.76,27.4v42.11h-5.67l-23.26-29.73v29.73h-6.88V27.4h5.67l23.26,29.87v-29.87h6.88Z"/>
        <path class="cls-1" d="M373.32,27.4v42.11h-5.67l-23.26-29.73v29.73h-6.88V27.4h5.67l23.26,29.87v-29.87h6.88Z"/>
        <path class="cls-1" d="M386.66,51.49v-24.09h6.88v23.94c0,8.23,3.83,12.53,10.85,12.53s10.85-4.23,10.85-12.53v-23.94h6.74v24.09c0,11.79-6.59,18.61-17.65,18.61s-17.65-6.82-17.65-18.61Z"/>
        <path class="cls-1" d="M459.9,59.5h-21.62l-4.25,10.01h-6.74l18.43-42.11h6.81l18.5,42.11h-6.95l-4.18-10.01ZM457.49,53.79l-8.37-19.87-8.44,19.87h16.8Z"/>
        <path class="cls-1" d="M477.84,27.4h6.88v36.1h21.62v6h-28.5V27.4Z"/>
      </g>
      <path class="cls-1" d="M236.41,179.29l5.55-11.7c7.8,7.05,21.15,12.15,34.65,12.15,18.15,0,25.95-7.05,25.95-16.2,0-25.65-63.6-9.45-63.6-48.45,0-16.2,12.6-30,40.2-30,12.3,0,25.05,3.3,33.75,9.3l-4.95,12c-9.15-5.85-19.5-8.55-28.8-8.55-17.85,0-25.5,7.5-25.5,16.65,0,25.65,63.6,9.6,63.6,48.15,0,16.05-12.9,29.85-40.65,29.85-16.05,0-31.8-5.4-40.2-13.2Z"/>
      <path class="cls-1" d="M327,148.7c0-25.2,19.8-43.8,46.2-43.8,14.55,0,25.8,4.35,33.6,13.35l-9.3,9.45c-6.6-7.05-14.55-10.2-23.85-10.2-18.45,0-31.95,13.05-31.95,31.2s13.5,31.2,31.95,31.2c9.3,0,17.25-3.3,23.85-10.35l9.3,9.45c-7.95,9.15-19.2,13.5-33.6,13.5-26.4,0-46.2-18.6-46.2-43.8Z"/>
      <path class="cls-1" d="M420.3,106.1h14.55v36h46.65v-36h14.55v85.2h-14.55v-37.2h-46.65v37.2h-14.55v-85.2Z"/>
      <path class="cls-1" d="M508.2,148.7c0-25.2,19.8-43.8,46.35-43.8s46.35,18.6,46.35,43.8-19.65,43.8-46.35,43.8-46.35-18.6-46.35-43.8ZM586.2,148.7c0-18.15-13.5-31.2-31.65-31.2s-31.65,13.05-31.65,31.2,13.5,31.2,31.65,31.2,31.65-13.05,31.65-31.2Z"/>
      <path class="cls-1" d="M608.1,148.7c0-25.2,19.8-43.8,46.35-43.8s46.35,18.6,46.35,43.8-19.65,43.8-46.35,43.8-46.35-18.6-46.35-43.8ZM686.1,148.7c0-18.15-13.5-31.2-31.65-31.2s-31.65,13.05-31.65,31.2,13.5,31.2,31.65,31.2,31.65-13.05,31.65-31.2Z"/>
      <path class="cls-1" d="M715.95,106.1h14.55v73.05h45.75v12.15h-60.3v-85.2Z"/>
      <path class="cls-1" d="M923.84,162.94c0,18-13.65,28.35-40.2,28.35h-50.1v-105h47.1c24.15,0,37.65,10.2,37.65,27.15,0,11.4-5.85,19.35-14.1,23.4,11.85,3.3,19.65,12.15,19.65,26.1ZM848.55,98.45v33.6h30.75c15.3,0,24-5.7,24-16.8s-8.7-16.8-24-16.8h-30.75ZM908.69,161.74c0-12.15-9-17.55-25.65-17.55h-34.5v34.95h34.5c16.65,0,25.65-5.25,25.65-17.4Z"/>
      <path class="cls-1" d="M939,154.84v-48.75h14.55v48.45c0,16.65,8.1,25.35,22.95,25.35s22.95-8.55,22.95-25.35v-48.45h14.25v48.75c0,23.85-13.95,37.65-37.35,37.65s-37.35-13.8-37.35-37.65Z"/>
      <path class="cls-1" d="M1035.89,106.1h14.55v85.2h-14.55v-85.2Z"/>
      <path class="cls-1" d="M1073.39,106.1h14.55v73.05h45.75v12.15h-60.3v-85.2Z"/>
      <path class="cls-1" d="M1146.44,106.1h37.05c28.8,0,47.1,16.8,47.1,42.6s-18.3,42.6-47.1,42.6h-37.05v-85.2ZM1182.89,179.14c20.85,0,33-11.7,33-30.45s-12.15-30.6-33-30.6h-21.9v61.05h21.9Z"/>
      <path class="cls-1" d="M1245.74,106.1h14.55v85.2h-14.55v-85.2Z"/>
      <path class="cls-1" d="M1356.99,106.1v85.2h-12l-49.2-60.15v60.15h-14.55v-85.2h12l49.2,60.45v-60.45h14.55Z"/>
      <path class="cls-1" d="M1437.84,148.25h14.1v33.3c-8.25,7.05-20.55,10.95-32.85,10.95-27.15,0-46.95-18.6-46.95-43.8s19.8-43.8,46.35-43.8c14.85,0,26.4,4.35,34.35,13.35l-9.3,9.45c-6.75-7.05-15-10.2-24.75-10.2-18.45,0-31.95,13.05-31.95,31.2s13.5,31.2,32.4,31.2c7.05,0,13.2-1.5,18.6-4.8v-26.85Z"/>
      <path class="cls-1" d="M306.6,317.49l-22.65-32.25c-2.1.15-4.35.3-6.6.3h-25.95v31.95h-15v-105h40.95c27.3,0,43.8,13.8,43.8,36.6,0,16.2-8.4,27.9-23.1,33.15l24.9,35.25h-16.35ZM306.15,249.09c0-15-10.05-23.55-29.25-23.55h-25.5v47.25h25.5c19.2,0,29.25-8.7,29.25-23.7Z"/>
      <path class="cls-1" d="M402.15,305.34v12.15h-63.9v-85.2h62.25v12h-47.7v24h42.45v11.85h-42.45v25.2h49.35Z"/>
      <path class="cls-1" d="M509.5,232.29l-37.95,85.2h-14.4l-37.8-85.2h15.6l29.7,67.95,30.15-67.95h14.7Z"/>
      <path class="cls-1" d="M530.25,232.29h14.55v85.2h-14.55v-85.2Z"/>
      <path class="cls-1" d="M630.65,305.34v12.15h-63.9v-85.2h62.25v12h-47.7v24h42.45v11.85h-42.45v25.2h49.35Z"/>
      <path class="cls-1" d="M776.25,232.29l-28.8,85.2h-15.45l-22.35-65.4-22.35,65.4h-15.6l-28.8-85.2h15l22.2,66.75,23.1-66.75h13.65l22.65,67.2,22.65-67.2h14.1Z"/>
      <path class="cls-1" d="M833.55,212.49h44.25c33.75,0,56.7,21.3,56.7,52.5s-22.95,52.5-56.7,52.5h-44.25v-105ZM876.9,304.44c25.95,0,42.6-15.9,42.6-39.45s-16.65-39.45-42.6-39.45h-28.35v78.9h28.35Z"/>
      <path class="cls-1" d="M1003.8,297.24h-45.75l-9,20.25h-14.25l39-85.2h14.4l39.15,85.2h-14.7l-8.85-20.25ZM998.7,285.69l-17.7-40.2-17.85,40.2h35.55Z"/>
      <path class="cls-1" d="M1032.75,308.49l5.7-11.4c6.6,5.4,17.55,9.3,28.8,9.3,14.25,0,19.5-5.4,19.5-11.85,0-19.8-51.6-6-51.6-38.1,0-15.15,13.05-25.35,34.35-25.35,10.2,0,21.15,2.25,28.65,7.35l-5.25,11.7c-7.35-5.1-15.9-6.75-23.85-6.75-13.65,0-19.35,5.4-19.35,12.15,0,19.65,51.6,6.3,51.6,37.65,0,15.45-12.9,25.5-34.65,25.5-13.2,0-26.85-4.05-33.9-10.2Z"/>
      <path class="cls-1" d="M1115.4,232.29h14.55v36h46.65v-36h14.55v85.2h-14.55v-37.2h-46.65v37.2h-14.55v-85.2Z"/>
      <path class="cls-1" d="M1283.99,294.39c0,14.55-11.4,23.1-33.75,23.1h-42v-85.2h39.6c20.4,0,31.65,8.55,31.65,22.05,0,9-4.35,15.45-11.4,18.9,10.05,2.85,15.9,10.05,15.9,21.15ZM1222.79,243.39v25.5h23.55c11.85,0,18.6-4.5,18.6-12.75s-6.75-12.75-18.6-12.75h-23.55ZM1269.29,293.19c0-9.15-6.9-13.2-19.8-13.2h-26.7v26.4h26.7c12.9,0,19.8-4.2,19.8-13.2Z"/>
      <path class="cls-1" d="M1293.89,274.89c0-25.2,19.8-43.8,46.35-43.8s46.35,18.6,46.35,43.8-19.65,43.8-46.35,43.8-46.35-18.6-46.35-43.8ZM1371.89,274.89c0-18.15-13.5-31.2-31.65-31.2s-31.65,13.05-31.65,31.2,13.5,31.2,31.65,31.2,31.65-13.05,31.65-31.2Z"/>
      <path class="cls-1" d="M1457.54,297.24h-45.75l-9,20.25h-14.25l39-85.2h14.4l39.15,85.2h-14.7l-8.85-20.25ZM1452.44,285.69l-17.7-40.2-17.85,40.2h35.55Z"/>
      <path class="cls-1" d="M1549.49,317.49l-18.3-25.5c-1.2.15-2.55.15-3.9.15h-20.25v25.35h-14.55v-85.2h34.8c22.35,0,36.45,10.95,36.45,30,0,13.2-6.9,22.5-18.75,27l20.25,28.2h-15.75ZM1549.04,262.29c0-11.55-7.8-18-22.65-18h-19.35v36h19.35c14.85,0,22.65-6.45,22.65-18Z"/>
      <path class="cls-1" d="M1580.99,232.29h37.05c28.8,0,47.1,16.8,47.1,42.6s-18.3,42.6-47.1,42.6h-37.05v-85.2ZM1617.44,305.34c20.85,0,33-11.7,33-30.45s-12.15-30.6-33-30.6h-21.9v61.05h21.9Z"/>
      <g>
        <path class="cls-2" d="M102.47,173.19c0,5.64-3.06,10.22-6.82,10.22s-6.81-4.58-6.81-10.22,3.06-10.24,6.81-10.24,6.82,4.58,6.82,10.24Z"/>
        <path class="cls-2" d="M120.03,1.73c-1.45-1.31-3.42-1.92-5.36-1.68h-.63c-.21.05-.44.14-.63.21L4.67,34.37c-2.8.93-4.67,3.56-4.67,6.5v273.01c0,3.13,2.1,5.84,5.1,6.62l108.72,27.28s.05.02.09.02h3.27c.91-.23,1.76-.65,2.52-1.24,1.62-1.28,2.62-3.27,2.62-5.38V6.89c.03-1.97-.82-3.84-2.29-5.16ZM110.09,332.58l-96.11-24.03V44.47L110.09,14.43v318.14ZM197.61,26.26h-61.32v13.98h54.17v265.61h-54.17v13.98h61.32c3.76,0,6.83-3.08,6.83-6.83V33.1c0-3.76-3.08-6.83-6.83-6.83Z"/>
        <path class="cls-4" d="M95.65,162.95c-3.76,0-6.81,4.58-6.81,10.24s3.06,10.22,6.81,10.22,6.82-4.58,6.82-10.22-3.06-10.24-6.82-10.24ZM197.61,26.26h-61.32v13.98h54.17v265.61h-54.17v13.98h61.32c3.76,0,6.83-3.08,6.83-6.83V33.1c0-3.76-3.08-6.83-6.83-6.83ZM95.65,162.95c-3.76,0-6.81,4.58-6.81,10.24s3.06,10.22,6.81,10.22,6.82-4.58,6.82-10.22-3.06-10.24-6.82-10.24ZM95.65,162.95c-3.76,0-6.81,4.58-6.81,10.24s3.06,10.22,6.81,10.22,6.82-4.58,6.82-10.22-3.06-10.24-6.82-10.24ZM95.65,162.95c-3.76,0-6.81,4.58-6.81,10.24s3.06,10.22,6.81,10.22,6.82-4.58,6.82-10.22-3.06-10.24-6.82-10.24ZM120.03,1.73c-1.45-1.31-3.42-1.92-5.36-1.68h-.63c-.21.05-.44.14-.63.21L4.67,34.37c-2.8.93-4.67,3.56-4.67,6.5v273.01c0,3.13,2.1,5.84,5.1,6.62l108.72,27.28s.05.02.09.02c1.1.28,2.22.26,3.27,0,.91-.23,1.76-.65,2.52-1.24,1.62-1.28,2.62-3.27,2.62-5.38V6.89c.03-1.97-.82-3.84-2.29-5.16ZM110.09,332.58l-96.11-24.03V44.47L110.09,14.43v318.14ZM95.65,183.41c3.76,0,6.82-4.58,6.82-10.22s-3.06-10.24-6.82-10.24-6.81,4.58-6.81,10.24,3.06,10.22,6.81,10.22ZM95.65,162.95c-3.76,0-6.81,4.58-6.81,10.24s3.06,10.22,6.81,10.22,6.82-4.58,6.82-10.22-3.06-10.24-6.82-10.24ZM95.65,162.95c-3.76,0-6.81,4.58-6.81,10.24s3.06,10.22,6.81,10.22,6.82-4.58,6.82-10.22-3.06-10.24-6.82-10.24Z"/>
      </g>
      <g>
        <path class="cls-3" d="M1595.92,93.19c0,5.98,4.85,10.83,10.83,10.83s10.81-4.85,10.81-10.83-4.85-10.84-10.81-10.84-10.83,4.86-10.83,10.84Z"/>
        <g>
          <path class="cls-3" d="M1583.67,26.93c-.18.08-.26.28-.23.48,2.41,11.73.52,32.16-12.76,51.11l-14.61,21.39-12.12,18.12c-19.07,28.27-14.03,58.97-5.98,72.74.1.18.29.27.49.22.19-.06.31-.23.31-.42l-.03-4.74c-.18-13.7-.32-23.58,15.61-49.52,6.35-10.34,11.65-18.31,16.32-25.34,8.22-12.35,14.17-21.27,18.88-33.07,8.52-21.29,1.84-42.93-5.37-50.85-.14-.14-.35-.19-.53-.08l.02-.02Z"/>
          <path class="cls-3" d="M1567.37.08c-.18.12-.25.35-.18.54,4.76,11.35-.19,28.81-13.61,47.94l-19.42,28.31-9.43,14.01c-19.35,28.67-11.02,59.39-3.05,73.02.1.17.3.26.49.21.2-.05.32-.23.32-.42l-.04-4.59c-.17-14.52-.33-28.25,15.7-54.34,7.89-12.87,13.92-20.78,18.76-27.13,6.03-7.92,10.41-13.66,14.49-23.86,8.57-21.39,3.74-45.65-3.5-53.61-.14-.16-.38-.2-.55-.07h.03Z"/>
          <path class="cls-3" d="M1512.81,50.61c0,5.98,4.85,10.83,10.81,10.83s10.81-4.85,10.81-10.83-4.85-10.84-10.81-10.84-10.81,4.86-10.81,10.84Z"/>
          <path class="cls-3" d="M1442.65,51.57c-.14.14-.18.35-.08.52.08.18.28.27.47.23,3.69-.82,7.84-1.17,11.66-1.23,30.62-.42,52.16,23.45,52.16,52.28l-.05,2.21c0,.21.14.38.33.44.21.05.4-.05.49-.23,2.96-6.35,4.46-13.19,4.46-20.36,0-24.88-18.3-44.06-41.24-44.06-10.15,0-20.61,2.96-28.22,10.24l.03-.03Z"/>
          <path class="cls-3" d="M1568.82,136.38c-.1.18-.07.4.07.54.14.14.38.16.54.05,22.61-15.44,53.26-13.75,74.55,4.16,4.74,3.98,8.85,8.61,12.21,13.75.1.17.33.24.53.17.19-.07.31-.26.28-.47-3.45-23.34-23.83-40.95-47.42-40.95-16.71,0-31.95,8.5-40.77,22.76v-.02Z"/>
        </g>
      </g>
    </g>
  </g>
</svg>