<?xml version="1.0" encoding="UTF-8"?>
<svg id="Layer_2" data-name="Layer 2" xmlns="http://www.w3.org/2000/svg" viewBox="0 0 579 579">
  <defs>
    <style>
      .cls-1 {
        fill: #b23428;
        stroke: #fff;
        stroke-miterlimit: 10;
        stroke-width: 3px;
      }

      .cls-2 {
        fill: #fff;
        stroke-width: 0px;
      }
    </style>
  </defs>
  <g id="Layer_1-2" data-name="Layer 1">
    <g>
      <circle class="cls-1" cx="289.5" cy="289.5" r="288"/>
      <g>
        <path class="cls-2" d="M381.5,284.89c0,11.92,9.66,21.59,21.58,21.59s21.55-9.67,21.55-21.59-9.66-21.6-21.55-21.6-21.58,9.68-21.58,21.6Z"/>
        <g>
          <path class="cls-2" d="M357.07,152.85c-.35.17-.52.56-.45.95,4.81,23.37,1.04,64.1-25.43,101.87l-29.12,42.64-24.16,36.11c-38.01,56.34-27.96,117.53-11.92,144.96.21.35.58.53.97.43.38-.12.62-.45.62-.84l-.06-9.44c-.35-27.3-.64-47,31.11-98.7,12.65-20.62,23.22-36.49,32.54-50.5,16.38-24.61,28.25-42.39,37.62-65.92,16.99-42.43,3.67-85.56-10.7-101.35-.29-.27-.7-.38-1.05-.17l.04-.04Z"/>
          <path class="cls-2" d="M324.59,99.32c-.35.25-.49.7-.35,1.08,9.49,22.62-.38,57.43-27.13,95.55l-38.71,56.41-18.8,27.92c-38.57,57.14-21.97,118.36-6.07,145.53.21.34.6.52.97.42.39-.1.64-.45.64-.84l-.08-9.15c-.34-28.93-.66-56.31,31.29-108.3,15.73-25.66,27.75-41.41,37.38-54.07,12.02-15.79,20.75-27.22,28.87-47.56,17.08-42.64,7.46-90.98-6.98-106.83-.27-.32-.77-.39-1.1-.14h.06Z"/>
          <path class="cls-2" d="M215.86,200.03c0,11.92,9.66,21.59,21.55,21.59s21.55-9.67,21.55-21.59-9.66-21.6-21.55-21.6-21.55,9.68-21.55,21.6Z"/>
          <path class="cls-2" d="M76.02,201.96c-.27.27-.35.69-.17,1.04.17.35.56.53.94.45,7.36-1.64,15.62-2.34,23.23-2.44,61.03-.84,103.95,46.73,103.95,104.18l-.1,4.41c0,.42.29.77.66.87.42.1.81-.1.97-.45,5.9-12.65,8.89-26.28,8.89-40.58,0-49.59-36.47-87.82-82.19-87.82-20.23,0-41.08,5.9-56.24,20.41l.06-.06Z"/>
          <path class="cls-2" d="M327.49,370.96c-.21.35-.14.81.14,1.08.27.29.77.32,1.08.1,45.05-30.78,106.15-27.4,148.59,8.29,9.45,7.93,17.64,17.16,24.33,27.4.21.34.66.48,1.05.34.38-.13.62-.52.56-.94-6.88-46.52-47.5-81.6-94.5-81.6-33.3,0-63.68,16.95-81.25,45.36v-.04Z"/>
        </g>
      </g>
    </g>
  </g>
</svg>