<?xml version="1.0" encoding="UTF-8"?>
<svg id="Layer_2" data-name="Layer 2" xmlns="http://www.w3.org/2000/svg" viewBox="0 0 388.6 382.78">
  <defs>
    <style>
      .cls-1 {
        fill: #be5247;
      }

      .cls-1, .cls-2, .cls-3 {
        stroke-width: 0px;
      }

      .cls-2 {
        fill: #2ba680;
      }

      .cls-3 {
        fill: #fff;
      }
    </style>
  </defs>
  <g id="Layer_1-2" data-name="Layer 1">
    <g>
      <g>
        <path class="cls-1" d="M388.6,191.39c0,27.96-5.99,54.53-16.77,78.47-3.7,8.23-7.98,16.16-12.77,23.72-30.32,47.93-81.34,81.45-140.49,88.02-4.47.49-9,.84-13.56,1.02-2.58.1-5.19.16-7.8.16-15.93,0-31.4-1.95-46.19-5.61V5.61c14.79-3.67,30.26-5.61,46.19-5.61,105.7,0,191.39,85.68,191.39,191.39Z"/>
        <g>
          <path class="cls-3" d="M326.99,228.87c0,11.41,9.25,20.67,20.66,20.67s20.63-9.26,20.63-20.67-9.25-20.68-20.63-20.68-20.66,9.27-20.66,20.68Z"/>
          <g>
            <path class="cls-3" d="M314.83,199.68c-8.98,22.53-20.34,39.55-36.02,63.12-8.93,13.41-19.04,28.61-31.15,48.35-20.7,33.7-27.17,53.2-29.08,70.46-4.47.49-9,.84-13.56,1.02-5.52-29.52-2.36-69.03,22.8-106.33l23.14-34.57,27.88-40.82c25.34-36.16,28.95-75.15,24.34-97.53-.06-.37.1-.75.44-.91l-.04.04c.33-.2.73-.09,1.01.16,13.75,15.12,26.51,56.42,10.25,97.03Z"/>
            <path class="cls-3" d="M272.51,51.2c-.34.24-.47.67-.34,1.03,9.08,21.65-.36,54.98-25.97,91.48l-37.06,54.01-18,26.73c-36.92,54.71-21.03,113.33-5.81,139.34.2.32.57.5.93.4.37-.1.61-.44.61-.81l-.07-8.76c-.32-27.7-.63-53.91,29.96-103.69,15.06-24.57,26.57-39.65,35.79-51.77,11.51-15.12,19.86-26.06,27.64-45.54,16.35-40.82,7.14-87.1-6.68-102.29-.26-.31-.73-.37-1.06-.14h.06Z"/>
            <path class="cls-3" d="M168.4,147.63c0,11.41,9.25,20.67,20.63,20.67s20.63-9.26,20.63-20.67-9.25-20.68-20.63-20.68-20.63,9.27-20.63,20.68Z"/>
            <path class="cls-3" d="M371.82,269.86c-3.7,8.23-7.98,16.16-12.77,23.72-28.42-4.14-58.01,2.03-82.61,18.83-.29.21-.77.17-1.04-.1-.28-.26-.33-.69-.13-1.03v.03c16.82-27.2,45.9-43.43,77.79-43.43,6.4,0,12.67.67,18.75,1.98Z"/>
          </g>
        </g>
      </g>
      <path class="cls-2" d="M142.47,8.63c-41.66,10.54-77.8,34.92-103.26,67.96h12.94v44.77h-30.2v-17.95C7.93,129.8,0,159.91,0,191.86s7.93,62.06,21.94,88.45v-18.18h30.2v44.79h-13.1c25.46,33.15,61.68,57.61,103.43,68.17.63.16,1.26.31,1.9.47V8.17c-.64.15-1.27.3-1.9.47ZM52.14,217.35h-30.2v-44.79h30.2v44.79ZM116.87,306.92h-30.2v-44.79h30.2v44.79ZM116.87,217.35h-30.2v-44.79h30.2v44.79ZM116.87,121.37h-30.2v-44.77h30.2v44.77Z"/>
    </g>
  </g>
</svg>