<?xml version="1.0" encoding="UTF-8"?>
<svg id="Layer_2" data-name="Layer 2" xmlns="http://www.w3.org/2000/svg" viewBox="0 0 293.75 305">
  <defs>
    <style>
      .cls-1 {
        fill: #000;
        stroke-width: 0px;
      }
    </style>
  </defs>
  <g id="Layer_1-2" data-name="Layer 1">
    <g>
      <path class="cls-1" d="M268.2,0H25.54c-.84,0-1.67.04-2.5.12-.83.08-1.66.2-2.48.37-.82.17-1.63.37-2.43.61-.8.24-1.59.52-2.36.84s-1.53.67-2.27,1.07c-.74.39-1.45.82-2.15,1.29-.7.47-1.37.96-2.01,1.49-.65.53-1.27,1.09-1.86,1.68-.59.59-1.15,1.21-1.68,1.86-.53.64-1.03,1.31-1.49,2.01-.47.7-.89,1.41-1.29,2.15-.4.74-.75,1.49-1.07,2.26-.32.77-.6,1.56-.85,2.36-.24.8-.44,1.6-.61,2.43-.16.82-.28,1.65-.37,2.48s-.12,1.66-.12,2.5.04,1.67.12,2.5.2,1.66.37,2.48c.16.82.37,1.63.61,2.43.25.8.52,1.59.85,2.36.32.77.67,1.53,1.07,2.26.39.74.82,1.45,1.29,2.15.47.7.97,1.36,1.49,2.01.53.64,1.09,1.26,1.68,1.85.59.59,1.21,1.16,1.86,1.68.64.53,1.32,1.02,2.01,1.49.7.47,1.41.89,2.15,1.29.74.4,1.49.75,2.27,1.07s1.56.6,2.36.84c.8.25,1.61.45,2.43.61s1.65.28,2.48.37c.84.08,1.67.12,2.5.12h242.66c.84,0,1.67-.04,2.5-.12.83-.08,1.66-.2,2.48-.37s1.63-.37,2.44-.61c.8-.24,1.58-.52,2.36-.84s1.53-.67,2.27-1.07c.74-.39,1.45-.82,2.15-1.29s1.37-.96,2.02-1.49c.64-.53,1.26-1.09,1.86-1.68s1.16-1.21,1.68-1.85c.53-.65,1.03-1.32,1.49-2.01s.89-1.41,1.29-2.15c.4-.74.75-1.49,1.07-2.26.32-.77.61-1.56.85-2.36.25-.79.44-1.6.61-2.43.16-.82.28-1.65.37-2.48s.13-1.66.13-2.5-.04-1.67-.13-2.5-.2-1.66-.37-2.48c-.17-.82-.37-1.63-.61-2.43-.24-.8-.52-1.59-.85-2.36-.32-.77-.67-1.53-1.07-2.26-.39-.74-.82-1.45-1.29-2.15s-.96-1.36-1.49-2.01c-.53-.65-1.09-1.26-1.68-1.86s-1.21-1.15-1.86-1.68c-.65-.53-1.32-1.02-2.02-1.49s-1.41-.89-2.15-1.29c-.74-.4-1.49-.75-2.27-1.07s-1.56-.6-2.36-.84c-.8-.25-1.61-.44-2.44-.61-.82-.16-1.65-.28-2.48-.37-.84-.08-1.67-.12-2.5-.12Z"/>
      <path class="cls-1" d="M197.21,127H25.81c-.84,0-1.67.04-2.5.12-.83.08-1.66.21-2.48.37s-1.63.37-2.44.61c-.8.24-1.58.52-2.36.84-.77.32-1.53.68-2.27,1.07-.74.39-1.45.83-2.15,1.29-.7.47-1.37.96-2.02,1.49-.64.53-1.26,1.09-1.86,1.68-.59.59-1.15,1.21-1.68,1.86-.53.64-1.03,1.32-1.49,2.01-.47.69-.89,1.41-1.29,2.14-.4.74-.75,1.49-1.08,2.26-.32.77-.6,1.56-.84,2.36-.25.8-.44,1.61-.61,2.42-.16.82-.28,1.65-.37,2.48s-.13,1.67-.13,2.5.04,1.67.13,2.5.2,1.66.37,2.47c.17.82.37,1.63.61,2.43.24.8.52,1.58.84,2.36.32.77.68,1.53,1.08,2.26.39.74.82,1.45,1.29,2.14.47.7.96,1.36,1.49,2.01.53.64,1.09,1.26,1.68,1.86.59.59,1.21,1.15,1.86,1.68.65.53,1.32,1.03,2.02,1.49.7.46,1.41.89,2.15,1.29.74.39,1.49.75,2.27,1.07.77.32,1.56.6,2.36.85.8.24,1.61.44,2.44.61s1.65.29,2.48.37c.83.08,1.67.13,2.5.13h171.4c.84,0,1.67-.04,2.5-.13.83-.08,1.66-.2,2.48-.37s1.63-.37,2.44-.61c.8-.25,1.58-.52,2.36-.85.77-.32,1.53-.67,2.27-1.07.74-.4,1.45-.83,2.15-1.29.7-.47,1.37-.96,2.01-1.49.65-.53,1.27-1.09,1.86-1.68s1.15-1.21,1.68-1.86c.53-.65,1.03-1.32,1.49-2.01s.89-1.41,1.29-2.14c.4-.74.75-1.49,1.07-2.26.32-.77.61-1.56.85-2.36s.44-1.61.61-2.43c.16-.82.28-1.64.37-2.47s.13-1.67.13-2.5-.04-1.67-.13-2.5-.2-1.66-.37-2.48c-.17-.82-.37-1.63-.61-2.42s-.52-1.58-.85-2.36c-.32-.77-.67-1.53-1.07-2.26-.39-.74-.82-1.45-1.29-2.14-.47-.7-.96-1.37-1.49-2.01-.53-.65-1.09-1.26-1.68-1.86s-1.21-1.15-1.86-1.68c-.64-.53-1.32-1.03-2.01-1.49-.7-.46-1.41-.89-2.15-1.29s-1.49-.75-2.27-1.07c-.77-.32-1.56-.6-2.36-.84-.8-.24-1.61-.44-2.44-.61s-1.65-.29-2.48-.37c-.84-.08-1.67-.12-2.5-.12Z"/>
      <path class="cls-1" d="M120.77,254H25.94c-.84,0-1.67.04-2.5.13-.83.08-1.66.2-2.48.37s-1.63.37-2.44.61c-.8.25-1.58.53-2.36.85s-1.53.67-2.27,1.07c-.74.4-1.45.83-2.15,1.29-.7.46-1.37.96-2.02,1.49-.64.53-1.26,1.09-1.86,1.68-.59.59-1.15,1.21-1.68,1.86-.53.65-1.03,1.32-1.49,2.01-.47.7-.89,1.41-1.29,2.15-.4.74-.75,1.49-1.08,2.26-.32.77-.6,1.56-.84,2.36-.25.8-.44,1.61-.61,2.43-.16.82-.28,1.64-.37,2.48-.08.83-.13,1.66-.13,2.5s.04,1.67.13,2.5.2,1.66.37,2.48c.17.82.37,1.63.61,2.42.24.8.52,1.58.84,2.36.32.77.68,1.53,1.08,2.26.39.74.82,1.45,1.29,2.15.47.7.96,1.36,1.49,2.01.53.65,1.09,1.26,1.68,1.86.59.59,1.21,1.15,1.86,1.68.65.53,1.32,1.02,2.02,1.49s1.41.89,2.15,1.29c.74.39,1.49.75,2.27,1.07s1.56.6,2.36.84c.8.25,1.61.44,2.44.61.82.17,1.65.29,2.48.37.83.08,1.67.12,2.5.12h94.83c.84,0,1.67-.04,2.5-.12.83-.08,1.66-.2,2.48-.37.82-.16,1.63-.36,2.43-.61.8-.24,1.59-.52,2.36-.84.77-.32,1.53-.68,2.27-1.07s1.45-.82,2.15-1.29c.7-.47,1.37-.96,2.02-1.49.65-.53,1.26-1.09,1.86-1.68s1.15-1.21,1.68-1.86c.53-.64,1.03-1.31,1.49-2.01s.89-1.41,1.29-2.15c.39-.74.75-1.49,1.07-2.26.32-.77.6-1.56.84-2.36.25-.8.45-1.61.61-2.42.16-.82.29-1.65.37-2.48.08-.83.13-1.66.13-2.5s-.04-1.67-.13-2.5c-.08-.84-.2-1.66-.37-2.48s-.37-1.63-.61-2.43c-.24-.8-.52-1.58-.84-2.36-.32-.77-.68-1.52-1.07-2.26-.4-.74-.83-1.45-1.29-2.15s-.96-1.36-1.49-2.01c-.53-.64-1.09-1.26-1.68-1.86s-1.21-1.15-1.86-1.68-1.32-1.03-2.02-1.49c-.7-.47-1.41-.89-2.15-1.29-.74-.39-1.49-.75-2.27-1.07-.77-.32-1.56-.6-2.36-.85-.8-.24-1.61-.44-2.43-.61s-1.65-.29-2.48-.37c-.83-.08-1.67-.13-2.5-.13Z"/>
    </g>
  </g>
</svg>