<?xml version="1.0" encoding="UTF-8"?>
<svg id="Layer_2" data-name="Layer 2" xmlns="http://www.w3.org/2000/svg" xmlns:xlink="http://www.w3.org/1999/xlink" viewBox="0 0 141 199">
  <defs>
    <style>
      .cls-1 {
        fill: #000;
      }

      .cls-1, .cls-2 {
        stroke-width: 0px;
      }

      .cls-2 {
        fill: none;
      }

      .cls-3 {
        clip-path: url(#clippath);
      }
    </style>
    <clipPath id="clippath">
      <rect class="cls-2" width="141" height="199"/>
    </clipPath>
  </defs>
  <g id="Layer_1-2" data-name="Layer 1">
    <g>
      <g class="cls-3">
        <path class="cls-1" d="M128,44.91v-25.91h7.72c2.96,0,5.28-2.35,5.28-5.34V5.25c0-2.9-2.35-5.25-5.25-5.25H5.26C2.36,0,0,2.36,0,5.26v8.49c0,2.9,2.35,5.25,5.25,5.25h6.75v26.13c0,16.94,7.37,32.62,20.43,43.49l13.27,10.87-13.27,10.87c-13.05,10.88-20.43,26.76-20.43,43.49v26.14h-6.75c-2.94,0-5.25,2.32-5.25,5.27v8.45c0,2.95,2.31,5.28,5.25,5.28h129.5c2.94,0,5.25-2.33,5.25-5.28v-8.45c0-2.95-2.31-5.27-5.25-5.27h-6.75v-25.49c.29-17.01-7.07-32.76-20.12-43.67l-13.05-11.13,13.26-10.92c12.84-10.92,20.42-26.88,19.91-43.89ZM101.36,80.81l-17.9,14.91c-1.26,1.05-1.89,2.52-1.89,3.99s.63,2.94,1.89,3.99l17.9,14.91c10.73,8.82,17.64,35.69,17.64,35.69v26.7H22v-26.05c0-13.87,6.17-26.89,17.02-35.72l18.08-14.92c1.27-1.05,1.91-2.52,1.91-3.99s-.64-2.94-1.91-3.99l-18.08-15.13c-10.85-8.82-17.02-21.85-17.02-35.72v-26.47h96v25.91c.19,13.86-6.12,26.88-16.64,35.91Z"/>
      </g>
      <path class="cls-1" d="M96.28,144.08l-20.16-10.08c-1.87-1.05-3.12-2.94-3.12-5.04v-35.13l22.88-19.53c7.58-6.3,12.21-14.91,13.47-24.57,0,0-19.36,4.41-38.94,4.41s-39.36-4.41-39.36-4.41c1.26,9.45,5.89,18.27,13.47,24.57l23.48,19.53v34.92c0,2.1-1.25,3.99-3.13,5.04l-20.28,10.08c-8.78,4.41-13.59,10.71-13.59,17.43v10.71h79v-10.71c0-6.72-4.99-13.02-13.72-17.21Z"/>
    </g>
  </g>
</svg>