<?xml version="1.0" encoding="UTF-8"?>
<svg id="Layer_2" data-name="Layer 2" xmlns="http://www.w3.org/2000/svg" viewBox="0 0 263 262.89">
  <defs>
    <style>
      .cls-1, .cls-2 {
        fill: #000;
        stroke-width: 0px;
      }

      .cls-2 {
        opacity: .55;
      }
    </style>
  </defs>
  <g id="Layer_1-2" data-name="Layer 1">
    <g>
      <polygon class="cls-1" points="216.86 96.69 216.3 97.24 108.8 204.22 108.66 204.35 108.52 204.22 46.14 141.54 65.67 122.56 109.33 166 198.04 78.43 216.3 96.14 216.86 96.69"/>
      <path class="cls-1" d="M145,242.08c-.7.09-1.41.16-2.12.23-.93.1-1.87.18-2.81.25-.03.01-.06.01-.09.01-.82.06-1.63.11-2.45.15-.17.02-.33.03-.5.03-.7.03-1.41.06-2.11.08-.02.01-.05.01-.08,0-.39.02-.79.03-1.19.03-.31.02-.62.02-.93.01-1.33.02-2.66.01-3.99-.02-.04.01-.07,0-.1,0-1.84-.05-3.69-.15-5.52-.28-1.12-.08-2.23-.18-3.34-.3-.82-.08-1.64-.17-2.45-.28-.7-.09-1.39-.18-2.08-.28-.66-.09-1.32-.2-1.97-.31-.49-.08-.99-.16-1.48-.25-.69-.12-1.38-.25-2.06-.39-.16-.03-.33-.06-.49-.09l-3.97,19.59h0c.99.21,1.98.4,2.98.57,1.08.2,2.16.38,3.25.54.54.09,1.09.17,1.63.24.49.07.98.14,1.47.2,1.23.16,2.46.3,3.69.42,1.04.1,2.07.2,3.11.28,1.16.08,2.32.16,3.48.22.93.04,1.85.08,2.78.1,1.28.04,2.56.06,3.84.06.57,0,1.13,0,1.7-.01.33-.01.67-.01,1-.02.79-.01,1.58-.04,2.38-.07.48-.02.97-.04,1.46-.06,2.87-.14,5.72-.38,8.54-.7.27-.03.54-.06.81-.09h0s-2.39-19.86-2.39-19.86Z"/>
      <path class="cls-1" d="M61.04,217.81l-12.61,15.44-.04.05c11,8.98,23.29,16.08,36.53,21.1v-.03s7.08-18.67,7.08-18.67c-11.21-4.25-21.63-10.27-30.96-17.89Z"/>
      <path class="cls-1" d="M28.92,175.18l-18.35,7.86h-.03c5.56,13.02,13.16,25,22.59,35.62l.05-.04,14.9-13.24c-7.99-9.01-14.44-19.17-19.16-30.2Z"/>
      <path class="cls-1" d="M21.83,151.59c-.05-.29-.1-.59-.16-.89-.3-1.7-.56-3.41-.77-5.13-.12-.93-.23-1.86-.32-2.8-.1-.93-.18-1.87-.25-2.81-.01-.03-.01-.06-.01-.09-.14-1.86-.24-3.73-.28-5.61-.03-.95-.04-1.91-.04-2.87s.01-1.9.04-2.84v-.1c.02-.82.05-1.63.1-2.44,0-.21,0-.42.03-.63.04-.85.09-1.71.16-2.56,0-.1.01-.2.02-.3l-19.94-1.57c-.05.67-.1,1.34-.14,2.01-.02.35-.05.7-.06,1.05-.03.48-.05.95-.07,1.43-.02.29-.03.58-.04.87-.01.15-.01.29-.02.43-.02.68-.04,1.36-.05,2.04-.02.87-.03,1.74-.03,2.61,0,.67,0,1.33.02,2,0,.63.02,1.26.04,1.89.02.7.04,1.41.08,2.11.02.52.05,1.05.08,1.57.01.29.03.58.05.86.07,1.11.15,2.23.25,3.34.01.08.02.17.03.26.05.64.12,1.29.19,1.93.09.92.2,1.85.32,2.77.07.54.14,1.09.22,1.64.15,1.09.32,2.17.5,3.26.09.54.18,1.08.28,1.62.09.54.19,1.07.3,1.61.1.54.21,1.08.32,1.61.34,1.71.72,3.42,1.14,5.11h.01l19.41-4.79c-.54-2.17-1.01-4.37-1.41-6.59Z"/>
      <path class="cls-1" d="M20.31,61.25l-.04-.03c-6.58,10.41-11.63,21.61-15.04,33.38-.23.79-.45,1.59-.67,2.39-.14.52-.28,1.05-.41,1.57-.14.5-.27,1-.39,1.5h.01l19.42,4.75c.42-1.7.87-3.39,1.38-5.07,2.88-9.8,7.11-19.15,12.6-27.83l-16.86-10.66Z"/>
      <path class="cls-1" d="M65.61,17.63l-.03-.05c-12.24,7.11-23.21,16.1-32.61,26.72l.05.04,14.93,13.21c7.97-9.01,17.28-16.64,27.67-22.67l-10.01-17.25Z"/>
      <path class="cls-1" d="M126,.01h0c-.23,0-.45.01-.68.03-.48.01-.97.04-1.45.07-.86.05-1.72.11-2.58.17-.51.04-1.01.08-1.51.13-1.12.1-2.24.21-3.36.34-.55.06-1.1.13-1.65.2-1.09.14-2.18.29-3.27.46-3.24.49-6.47,1.1-9.66,1.85-.53.13-1.06.25-1.59.38s-1.05.26-1.58.4c-4.74,1.2-9.41,2.68-14,4.43v.03s7.13,18.66,7.13,18.66c3.56-1.36,7.19-2.53,10.87-3.5.74-.21,1.49-.4,2.25-.57.69-.18,1.39-.35,2.09-.5.25-.05.5-.1.74-.16.57-.13,1.15-.25,1.73-.36.77-.16,1.54-.3,2.31-.44.91-.17,1.83-.32,2.75-.45,1.83-.29,3.68-.53,5.54-.71h.04c.93-.1,1.87-.18,2.81-.25.92-.07,1.83-.13,2.75-.17.07-.01.15-.02.22-.01.3-.02.61-.04.92-.05L126,.01Z"/>
      <path class="cls-1" d="M261.26,110.03c-.01-.09-.02-.18-.04-.27-.09-.54-.18-1.08-.28-1.62-.19-1.08-.4-2.15-.61-3.22-.22-1.07-.45-2.13-.7-3.19-.16-.7-.33-1.39-.5-2.09-.34-1.36-.7-2.72-1.08-4.07-.01-.02-.02-.04-.02-.06-2.54-8.91-5.98-17.43-10.23-25.46-3.32-6.26-7.12-12.22-11.36-17.83-8.52-11.26-18.81-21.12-30.45-29.15-5.79-3.99-11.92-7.53-18.33-10.57-7.69-3.65-15.78-6.58-24.21-8.69-.76-.19-1.52-.37-2.29-.55-1.59-.36-3.19-.7-4.8-1.01-.53-.11-1.07-.21-1.61-.3-.54-.1-1.08-.19-1.62-.28-.54-.09-1.09-.18-1.63-.26-1.22-.19-2.44-.36-3.66-.51-.24-.03-.48-.06-.72-.08l-2.35,19.85c.3.04.61.07.91.12.93.12,1.86.25,2.78.39s1.84.29,2.75.45c.69.12,1.38.26,2.06.39.69.14,1.37.28,2.05.43.19.04.37.09.56.13.6.13,1.21.27,1.81.41.65.16,1.3.33,1.95.49.1.03.2.06.3.09,1.28.33,2.55.69,3.81,1.07.03.01.06.02.08.03,37.78,11.47,67.14,42.5,76.24,81.24.15.63.29,1.27.43,1.91.12.58.24,1.17.36,1.75.14.7.27,1.41.4,2.11,1.13,6.32,1.72,12.82,1.74,19.45v.26c0,.96-.01,1.92-.04,2.87-.02.96-.06,1.91-.11,2.86-.04.95-.1,1.89-.18,2.84-.14,1.88-.33,3.75-.57,5.61-.12.93-.25,1.86-.39,2.78-.13.92-.28,1.83-.45,2.75-.33,1.83-.7,3.64-1.12,5.44-.17.72-.34,1.43-.52,2.14-.54,2.13-1.14,4.24-1.79,6.32-11.23,35.43-39.7,63.25-75.52,73.56l5.39,19.26c.14-.04.28-.08.42-.12,13.75-3.99,26.59-10.18,38.09-18.14,5.81-4.03,11.28-8.51,16.36-13.39,10.15-9.76,18.74-21.12,25.36-33.68,3.27-6.21,6.06-12.72,8.32-19.47.98-2.93,1.86-5.91,2.64-8.93.26-1.01.51-2.02.74-3.04.36-1.59.7-3.19,1.01-4.8.11-.53.21-1.07.3-1.61.1-.54.19-1.08.28-1.62.09-.54.18-1.09.26-1.63.17-1.1.33-2.21.46-3.31.07-.54.14-1.07.2-1.61.28-2.44.49-4.9.63-7.38.05-.77.09-1.54.12-2.31,0-.11,0-.21,0-.31.03-.8.06-1.61.07-2.41.02-.89.03-1.78.03-2.67v-.26c-.01-7.18-.61-14.23-1.74-21.1Z"/>
      <path class="cls-2" d="M20.9,145.57c.21,1.72.47,3.43.77,5.13-.29-1.69-.55-3.41-.77-5.13Z"/>
      <path class="cls-2" d="M114.54,21.18c1.83-.28,3.68-.52,5.54-.71-1.86.18-3.71.42-5.54.71Z"/>
    </g>
  </g>
</svg>