<?xml version="1.0" encoding="UTF-8"?>
<svg id="Layer_2" data-name="Layer 2" xmlns="http://www.w3.org/2000/svg" viewBox="0 0 366.94 326.73">
  <defs>
    <style>
      .cls-1 {
        fill: #b23428;
        stroke-width: 0px;
      }
    </style>
  </defs>
  <g id="Layer_1-2" data-name="Layer 1">
    <g>
      <path class="cls-1" d="M262.43,159.41c0,10.23,8.29,18.53,18.52,18.53s18.5-8.3,18.5-18.53-8.29-18.54-18.5-18.54-18.52,8.31-18.52,18.54Z"/>
      <g>
        <path class="cls-1" d="M241.47,46.07c-.3.15-.45.48-.39.81,4.13,20.06.89,55.02-21.82,87.44l-24.99,36.6-20.74,30.99c-32.62,48.35-24,100.88-10.23,124.42.18.3.5.46.84.37.32-.1.54-.39.54-.73l-.06-8.1c-.3-23.43-.55-40.34,26.7-84.72,10.86-17.7,19.93-31.32,27.93-43.35,14.06-21.12,24.24-36.38,32.29-56.58,14.58-36.42,3.15-73.44-9.18-86.99-.25-.23-.6-.32-.9-.15l.03-.03Z"/>
        <path class="cls-1" d="M213.59.13c-.3.21-.42.6-.3.93,8.14,19.41-.32,49.29-23.28,82.02l-33.23,48.42-16.13,23.97c-33.1,49.05-18.86,101.6-5.21,124.91.18.29.51.45.84.36.33-.09.55-.39.55-.73l-.07-7.85c-.29-24.84-.57-48.33,26.86-92.96,13.5-22.02,23.82-35.55,32.09-46.41,10.32-13.56,17.81-23.36,24.78-40.82,14.66-36.6,6.4-78.09-5.99-91.7-.23-.28-.66-.33-.95-.12h.06Z"/>
        <path class="cls-1" d="M120.26,86.57c0,10.23,8.29,18.53,18.5,18.53s18.5-8.3,18.5-18.53-8.29-18.54-18.5-18.54-18.5,8.31-18.5,18.54Z"/>
        <path class="cls-1" d="M.23,88.22c-.23.23-.3.59-.15.89.15.3.48.46.8.39,6.31-1.41,13.41-2.01,19.94-2.1,52.38-.73,89.22,40.11,89.22,89.42l-.09,3.78c0,.36.25.66.57.75.36.09.69-.09.84-.39,5.07-10.86,7.63-22.56,7.63-34.83,0-42.56-31.31-75.38-70.55-75.38-17.36,0-35.26,5.07-48.28,17.52l.06-.06Z"/>
        <path class="cls-1" d="M216.07,233.29c-.18.3-.12.69.12.93.23.25.66.28.93.09,38.67-26.42,91.11-23.52,127.54,7.12,8.11,6.81,15.14,14.73,20.89,23.52.18.29.57.41.9.29.32-.11.54-.45.48-.8-5.9-39.93-40.77-70.04-81.11-70.04-28.58,0-54.66,14.55-69.74,38.94v-.03Z"/>
      </g>
    </g>
  </g>
</svg>