<?xml version="1.0" encoding="UTF-8"?>
<svg id="Layer_2" data-name="Layer 2" xmlns="http://www.w3.org/2000/svg" xmlns:xlink="http://www.w3.org/1999/xlink" viewBox="0 0 141 199">
  <defs>
    <style>
      .cls-1 {
        fill: #000;
      }

      .cls-1, .cls-2 {
        stroke-width: 0px;
      }

      .cls-2 {
        fill: none;
      }

      .cls-3 {
        clip-path: url(#clippath);
      }
    </style>
    <clipPath id="clippath">
      <rect class="cls-2" width="141" height="199"/>
    </clipPath>
  </defs>
  <g id="Layer_1-2" data-name="Layer 1">
    <g>
      <path class="cls-1" d="M30,44.85c0,11.34,5.05,22.05,13.69,29.4l25.91,21.42,25.7-21.42c8.85-7.35,13.69-18.06,13.69-29.4v-17.85H30v17.85Z"/>
      <g class="cls-3">
        <path class="cls-1" d="M129,44.91v-25.91h6.72c2.96,0,5.28-2.35,5.28-5.34V5.25c0-2.9-2.35-5.25-5.25-5.25H5.27C2.36,0,0,2.36,0,5.27v8.48c0,2.9,2.35,5.25,5.25,5.25h6.75v26.13c0,16.94,7.36,32.62,20.42,43.49l13.26,10.87-13.26,10.87c-13.05,10.88-20.42,26.76-20.42,43.49v26.14h-6.75c-2.94,0-5.25,2.32-5.25,5.27v8.45c0,2.95,2.31,5.28,5.25,5.28h129.5c2.94,0,5.25-2.33,5.25-5.28v-8.45c0-2.95-2.31-5.27-5.25-5.27h-6.75v-25.49c.19-17.01-7.18-32.76-20.23-43.67l-13.05-11.13,13.26-10.92c12.84-10.92,20.42-26.88,21.02-43.89ZM101.24,80.81l-17.89,14.91c-1.27,1.05-1.9,2.52-1.9,3.99s.63,2.94,1.9,3.99l17.89,14.91c10.73,8.82,16.76,35.69,16.76,35.69v26.7H22v-26.05c0-13.87,6.11-26.89,16.84-35.72l17.89-14.92c1.27-1.05,1.9-2.52,1.9-3.99s-.63-2.94-1.9-3.99l-17.89-15.13c-10.74-8.82-16.84-21.85-16.84-35.72v-26.47h95v25.91c1.08,13.86-5.23,26.88-15.76,35.91Z"/>
      </g>
    </g>
  </g>
</svg>