<?xml version="1.0" encoding="UTF-8"?>
<svg id="Layer_2" data-name="Layer 2" xmlns="http://www.w3.org/2000/svg" xmlns:xlink="http://www.w3.org/1999/xlink" viewBox="0 0 78.52 78.52">
  <defs>
    <style>
      .cls-1 {
        fill: none;
      }

      .cls-2 {
        fill: #b23427;
        fill-rule: evenodd;
      }

      .cls-3 {
        clip-path: url(#clippath);
      }
    </style>
    <clipPath id="clippath">
      <rect class="cls-1" width="78.52" height="78.52"/>
    </clipPath>
  </defs>
  <g id="Layer_1-2" data-name="Layer 1">
    <g class="cls-3">
      <path class="cls-2" d="M39.4,0C17.66,0,0,17.66,0,39.4s17.66,39.4,39.4,39.4,39.41-17.66,39.41-39.4S61.15,0,39.4,0ZM33.65,37.44c-.68,7.82-2.47,15.4-5.27,22.77-.68,1.8.22,3.81,2.02,4.49,1.8.68,3.82-.22,4.5-2.02,1.97-5.22,3.49-10.53,4.5-15.95,1.02,5.42,2.53,10.73,4.51,15.95.68,1.8,2.7,2.7,4.49,2.02,1.8-.68,2.71-2.7,2.03-4.49-2.79-7.36-4.58-14.94-5.27-22.75,4.18-.2,8.35-.64,12.53-1.32,1.9-.31,3.19-2.1,2.88-4-.31-1.9-2.1-3.19-4-2.89-11.45,1.86-22.91,1.79-34.36,0-1.9-.3-3.69,1.01-3.98,2.91s1.01,3.68,2.91,3.98c4.17.65,8.34,1.09,12.51,1.3ZM39.4,15.14c3.47,0,6.3,2.82,6.3,6.29s-2.82,6.29-6.3,6.29-6.29-2.82-6.29-6.29,2.82-6.29,6.29-6.29Z"/>
    </g>
  </g>
</svg>