<?xml version="1.0" encoding="UTF-8"?>
<svg id="Layer_2" data-name="Layer 2" xmlns="http://www.w3.org/2000/svg" xmlns:xlink="http://www.w3.org/1999/xlink" viewBox="0 0 61.69 61.69">
  <defs>
    <style>
      .cls-1 {
        fill: #b23427;
      }

      .cls-2 {
        fill: none;
      }

      .cls-3 {
        clip-path: url(#clippath);
      }
    </style>
    <clipPath id="clippath">
      <rect class="cls-2" width="61.69" height="61.69"/>
    </clipPath>
  </defs>
  <g id="Layer_1-2" data-name="Layer 1">
    <g>
      <g class="cls-3">
        <path class="cls-1" d="M59.33,57.14H6.59c-.29,0-.57-.06-.84-.17-.27-.11-.51-.27-.71-.48-.21-.2-.36-.44-.48-.71-.11-.27-.17-.55-.17-.84V2.2c0-.29-.05-.57-.17-.84-.11-.27-.27-.51-.47-.71s-.44-.36-.71-.48C2.77.06,2.49,0,2.2,0s-.57.06-.84.17c-.27.11-.51.27-.71.48-.21.2-.36.44-.47.71C.06,1.62,0,1.91,0,2.2v52.74c0,.43.05.86.13,1.29.08.43.21.84.38,1.24.17.4.37.78.61,1.14s.51.69.82,1,.64.58,1,.82c.36.24.74.44,1.14.61.4.16.81.29,1.23.38.43.08.85.13,1.29.13h52.74c.29,0,.57-.06.84-.17.27-.11.51-.27.71-.48.21-.2.37-.44.48-.71.11-.27.17-.55.17-.84s-.06-.57-.17-.84c-.11-.27-.27-.51-.48-.71-.2-.21-.44-.36-.71-.48-.27-.11-.55-.17-.84-.17Z"/>
      </g>
      <path class="cls-1" d="M13.19,43.67c.69,0,1.25-.27,1.69-.79l7.67-9.21,10.07,6.46c.44.29.91.48,1.42.6.51.11,1.02.14,1.54.07.52-.07,1.01-.22,1.47-.46.46-.24.87-.56,1.22-.95l20.24-22.53c.19-.21.34-.46.44-.73.1-.27.14-.55.13-.84s-.08-.57-.21-.83c-.13-.26-.29-.49-.51-.69-.21-.2-.46-.34-.74-.44s-.56-.15-.85-.13c-.3.02-.57.08-.84.21-.27.13-.49.3-.69.52l-20.3,22.53-10.07-6.46c-.45-.29-.94-.49-1.46-.6-.52-.11-1.05-.13-1.58-.05-.53.08-1.03.26-1.5.52-.46.27-.87.6-1.21,1.02l-7.65,9.21c-.28.33-.44.71-.49,1.14s.02.84.2,1.22.46.69.83.92c.37.22.77.33,1.2.32Z"/>
    </g>
  </g>
</svg>