<?xml version="1.0" encoding="UTF-8"?>
<svg id="Layer_2" data-name="Layer 2" xmlns="http://www.w3.org/2000/svg" xmlns:xlink="http://www.w3.org/1999/xlink" viewBox="0 0 142.45 103.05">
  <defs>
    <style>
      .cls-1 {
        fill: none;
      }

      .cls-2 {
        fill-rule: evenodd;
      }

      .cls-3 {
        clip-path: url(#clippath);
      }
    </style>
    <clipPath id="clippath">
      <rect class="cls-1" width="142.45" height="103.05"/>
    </clipPath>
  </defs>
  <g id="Layer_1-2" data-name="Layer 1">
    <g class="cls-3">
      <path class="cls-2" d="M11.1.01h120.33c6.06,0,11.02,4.95,11.02,11.01s-4.96,11.01-11.02,11.01H11.1C5.04,22.04.08,17.08.08,11.03S5.04.01,11.1.01ZM43.75,81.05h55.03c6.06,0,11.02,4.95,11.02,11.01s-4.96,11.01-11.02,11.01h-55.03c-6.06,0-11.02-4.95-11.02-11.01s4.96-11.01,11.02-11.01ZM26.7,40.53h89.14c6.06,0,11.02,4.95,11.02,11.01s-4.96,11.01-11.02,11.01H26.7c-6.06,0-11.02-4.95-11.02-11.01s4.96-11.01,11.02-11.01Z"/>
    </g>
  </g>
</svg>