<?xml version="1.0" encoding="UTF-8"?>
<svg id="Layer_2" data-name="Layer 2" xmlns="http://www.w3.org/2000/svg" xmlns:xlink="http://www.w3.org/1999/xlink" viewBox="0 0 86.05 86.05">
  <defs>
    <style>
      .cls-1 {
        fill: #b23427;
      }

      .cls-2 {
        fill: none;
      }

      .cls-3 {
        clip-path: url(#clippath-1);
      }

      .cls-4 {
        clip-path: url(#clippath);
      }
    </style>
    <clipPath id="clippath">
      <rect class="cls-2" y="55.86" width="30.25" height="30.19"/>
    </clipPath>
    <clipPath id="clippath-1">
      <rect class="cls-2" x="55.7" width="30.36" height="30.03"/>
    </clipPath>
  </defs>
  <g id="Layer_1-2" data-name="Layer 1">
    <g>
      <g class="cls-4">
        <path class="cls-1" d="M0,62.09c0,7.2,1.23,14.11,3.48,20.54,6.43,2.25,13.34,3.47,20.53,3.47,2.04,0,4.06-.1,6.05-.29L.29,56.11C.1,58.08,0,60.07,0,62.09Z"/>
      </g>
      <g class="cls-3">
        <path class="cls-1" d="M82.62,3.48C76.2,1.23,69.29,0,62.09,0c-2.04,0-4.06.1-6.05.3l29.77,29.7c.19-1.97.29-3.97.29-5.99,0-7.19-1.22-14.1-3.48-20.53Z"/>
      </g>
      <path class="cls-1" d="M1.59,48.08l36.51,36.42c23-5.34,41.1-23.46,46.41-46.47L48,1.61C25,6.94,6.9,25.06,1.59,48.08ZM52.24,31.25l5.9-5.89,2.64,2.64-5.9,5.89,3.35,3.35-2.64,2.64-3.35-3.35-6.5,6.49,3.41,3.39-2.64,2.64-3.41-3.4-6.92,6.9,3.36,3.35-2.64,2.63-3.36-3.35-5.49,5.48-2.64-2.64,5.49-5.47-3.35-3.35,2.64-2.64,3.36,3.35,6.92-6.9-3.3-3.29,2.64-2.64,3.31,3.29,6.5-6.49-3.36-3.35,2.64-2.64,3.36,3.35Z"/>
    </g>
  </g>
</svg>