<?xml version="1.0" encoding="UTF-8"?>
<svg id="Layer_2" data-name="Layer 2" xmlns="http://www.w3.org/2000/svg" viewBox="0 0 55.53 45.01">
  <defs>
    <style>
      .cls-1 {
        fill: #2ba680;
        fill-rule: evenodd;
      }
    </style>
  </defs>
  <g id="Layer_1-2" data-name="Layer 1">
    <path class="cls-1" d="M55.53,42.67v-20.83h-18.51v-5.22h1.7s-5.52-4.21-5.52-4.21l-4.83-3.69v-2.55c2.73.63,5.46-.96,8.19-.11V.45c-2.73-.86-5.46.74-8.19.1v-.55h-1.46v8.81l-4.66,3.69-5.44,4.3h1.69s0,5.04,0,5.04H0v20.83h18.5v.99H0v1.35h55.53v-1.35h-18.51v-.99h18.51ZM50.46,26.68h3.44v4.49h-3.44v-4.49ZM50.46,33.34h3.44v4.49h-3.44v-4.49ZM44.55,26.68h3.44v4.49h-3.44v-4.49ZM44.55,33.34h3.44v4.49h-3.44v-4.49ZM38.64,26.68h3.44v4.49h-3.44v-4.49ZM38.64,33.34h3.44v4.49h-3.44v-4.49ZM5.07,37.83H1.63v-4.49h3.44v4.49ZM5.07,31.17H1.63v-4.49h3.44v4.49ZM10.98,37.83h-3.44v-4.49h3.44v4.49ZM10.98,31.17h-3.44v-4.49h3.44v4.49ZM16.89,37.83h-3.44v-4.49h3.44v4.49ZM16.89,31.17h-3.44v-4.49h3.44v4.49ZM29.8,42.08h-4.06v-5.72c0-1.02.83-1.86,1.85-1.86h.36c1.02,0,1.85.84,1.85,1.86v5.72ZM27.76,23.65c-1.35,0-2.45-1.1-2.45-2.45s1.1-2.45,2.45-2.45,2.45,1.1,2.45,2.45-1.1,2.45-2.45,2.45Z"/>
  </g>
</svg>