<?xml version="1.0" encoding="UTF-8"?>
<svg id="Layer_2" data-name="Layer 2" xmlns="http://www.w3.org/2000/svg" viewBox="0 0 95.65 99.27">
  <defs>
    <style>
      .cls-1 {
        fill: #292f33;
      }
    </style>
  </defs>
  <g id="Layer_1-2" data-name="Layer 1">
    <path class="cls-1" d="M93.03,83.83l-19.3-19.58c4.97-6.88,7.66-15.13,7.69-23.61,0-10.77-4.29-21.11-11.92-28.73C62.1,4.53,52.15.27,41.72.01c-.34-.01-.67-.01-1.01-.01s-.67,0-1.01.01c-10.42.26-20.38,4.52-27.77,11.9C4.29,19.53,0,29.87,0,40.64s4.29,21.12,11.93,28.74c7.63,7.62,17.99,11.9,28.78,11.9,6.78-.03,13.44-1.76,19.38-5.02l19.99,20.29c3.53,3.58,9.26,3.63,12.84.1,3.59-3.52,3.64-9.24.11-12.82ZM57.83,47.13H22.53c-2.25,0-4.08-1.84-4.08-4.11,0-.37.05-.73.14-1.06.46-1.76,2.05-3.05,3.94-3.05h35.3c2.25,0,4.08,1.84,4.08,4.11s-1.83,4.11-4.08,4.11Z"/>
  </g>
</svg>