<?xml version="1.0" encoding="UTF-8"?>
<svg id="Layer_2" data-name="Layer 2" xmlns="http://www.w3.org/2000/svg" xmlns:xlink="http://www.w3.org/1999/xlink" viewBox="0 0 93.53 93.52">
  <defs>
    <style>
      .cls-1 {
        fill: none;
      }

      .cls-2 {
        clip-path: url(#clippath-1);
      }

      .cls-3 {
        clip-path: url(#clippath);
      }
    </style>
    <clipPath id="clippath">
      <rect class="cls-1" x="51.34" width="42.18" height="42.23"/>
    </clipPath>
    <clipPath id="clippath-1">
      <rect class="cls-1" y="12.14" width="81.43" height="81.38"/>
    </clipPath>
  </defs>
  <g id="Layer_1-2" data-name="Layer 1">
    <g>
      <g class="cls-3">
        <path d="M87.7,0h-23.38c-3.78.07-5.76,2.99-5.76,5.85s1.98,5.78,5.78,5.84h9.23l-20.39,20.39c-1.1,1.11-1.71,2.57-1.71,4.13s.61,3.03,1.71,4.13,2.57,1.71,4.13,1.71,3.03-.61,4.13-1.71l20.39-20.39v9.25c.06,3.78,2.99,5.76,5.84,5.76h0c2.85,0,5.78-1.98,5.84-5.78V5.84l-.03-.37C93.36,2.5,90.71,0,87.7,0Z"/>
      </g>
      <g class="cls-2">
        <path d="M75.41,33.37c-3.22,0-5.84,2.62-5.84,5.85v38.03c0,2.53-2.06,4.59-4.59,4.59H16.27c-2.53,0-4.58-2.06-4.58-4.59V28.54c0-2.53,2.06-4.58,4.58-4.58h38.03c3.22,0,5.85-2.62,5.85-5.84s-2.62-5.85-5.85-5.85H16.27C7.3,12.27,0,19.57,0,28.54v48.71C0,86.22,7.3,93.52,16.27,93.52h48.71c8.97,0,16.27-7.3,16.27-16.27v-38.03c0-3.22-2.62-5.85-5.84-5.85Z"/>
      </g>
    </g>
  </g>
</svg>