<?xml version="1.0" encoding="UTF-8"?>
<svg id="Layer_2" data-name="Layer 2" xmlns="http://www.w3.org/2000/svg" xmlns:xlink="http://www.w3.org/1999/xlink" viewBox="0 0 306.67 251.73">
  <defs>
    <style>
      .cls-1 {
        fill: #fff;
      }

      .cls-2 {
        fill: none;
      }

      .cls-3 {
        clip-path: url(#clippath);
      }
    </style>
    <clipPath id="clippath">
      <rect class="cls-2" width="306.67" height="251.73"/>
    </clipPath>
  </defs>
  <g id="Layer_1-2" data-name="Layer 1">
    <g class="cls-3">
      <path class="cls-1" d="M263.03,32.86h-45.01l-13.32-16.54C196.33,5.95,183.9,0,170.56,0h-34.28c-13.31,0-25.77,5.95-34.11,16.32l-13.31,16.54h-45.04C19.69,32.86.04,52.52.04,76.66v131.57c0,24.15,19.66,43.79,43.79,43.79h219.2c24.16,0,43.79-19.66,43.79-43.79V76.66c0-24.14-19.66-43.79-43.79-43.79ZM284.91,208.22c0,12.06-9.82,21.88-21.89,21.88H43.82c-12.07,0-21.88-9.82-21.88-21.88V76.66c0-12.07,9.81-21.89,21.88-21.89h50.25c3.31,0,6.44-1.52,8.53-4.09l16.63-20.6c4.17-5.19,10.39-8.16,17.06-8.16h34.3c6.67,0,12.89,2.96,17.06,8.16l16.61,20.61c2.08,2.58,5.21,4.09,8.53,4.09h50.25c12.07,0,21.89,9.82,21.89,21.89v131.55ZM153.43,65.76c-42.3,0-76.7,34.4-76.7,76.69s34.4,76.69,76.7,76.69,76.69-34.4,76.69-76.69-34.4-76.69-76.69-76.69ZM153.43,197.22c-30.21,0-54.79-24.58-54.79-54.79s24.58-54.77,54.79-54.77,54.79,24.58,54.79,54.79-24.58,54.77-54.79,54.77Z"/>
    </g>
  </g>
</svg>