<?xml version="1.0" encoding="UTF-8"?>
<svg id="Layer_2" data-name="Layer 2" xmlns="http://www.w3.org/2000/svg" viewBox="0 0 95.65 99.27">
  <defs>
    <style>
      .cls-1 {
        fill: #292f33;
      }
    </style>
  </defs>
  <g id="Layer_1-2" data-name="Layer 1">
    <path class="cls-1" d="M93.03,83.83l-19.3-19.58c4.97-6.88,7.66-15.13,7.69-23.61,0-10.77-4.29-21.11-11.92-28.73C62.1,4.53,52.15.27,41.72,0c-.34,0-.67,0-1.01,0s-.67,0-1.01,0c-10.42.26-20.38,4.52-27.77,11.9C4.29,19.53,0,29.87,0,40.64s4.29,21.12,11.93,28.74c7.63,7.62,17.99,11.9,28.78,11.9,6.78-.03,13.44-1.76,19.38-5.02l19.99,20.29c3.53,3.58,9.26,3.63,12.84.1,3.59-3.52,3.64-9.24.11-12.82ZM59.1,61.57c-.13.12-.26.23-.39.36-.07.07-.14.14-.21.21-4.87,4.22-11,6.53-17.32,6.53-7.22,0-14.13-2.99-19.24-8.32-5.1-5.33-7.96-12.56-7.96-20.1s2.86-14.77,7.96-20.1c5.11-5.33,12.02-8.33,19.24-8.33s14.13,3,19.23,8.33c5.1,5.33,7.97,12.56,7.97,20.1-.02,8.17-3.4,15.94-9.28,21.32Z"/>
  </g>
</svg>