<?xml version="1.0" encoding="UTF-8"?>
<svg id="Layer_2" data-name="Layer 2" xmlns="http://www.w3.org/2000/svg" xmlns:xlink="http://www.w3.org/1999/xlink" viewBox="0 0 61.69 57.68">
  <defs>
    <style>
      .cls-1 {
        fill: #b23427;
      }

      .cls-2 {
        fill: none;
      }

      .cls-3 {
        clip-path: url(#clippath);
      }
    </style>
    <clipPath id="clippath">
      <rect class="cls-2" width="61.69" height="57.68"/>
    </clipPath>
  </defs>
  <g id="Layer_1-2" data-name="Layer 1">
    <g class="cls-3">
      <path class="cls-1" d="M61.51,51.38c-.02-.66-.61-1.64-1.28-1.64h-.03c-.45.01-.9.02-1.33.02-7.48,0-11.09-1.77-12.8-3.26-1.75-1.51-2.09-2.8-2.24-3.37L30.8,1.07c-.18-.58-.74-1.03-1.29-1.03-.1,0-.2.02-.3.05-.35.11-.67.35-.86.66-.1.16-.16.34-.18.51l-1.79,7.15-7.81.21-2.11-7.17s-.02-.04-.02-.06c-.1-.77-.76-1.36-1.56-1.36-.7,0-1.29.45-1.49,1.08-.06.1-.09.22-.11.35v.04S.15,53.92.15,53.92v.02c-.15.35-.13.72.03,1.04.14.29.39.5.68.6l.49-.02c.59-.02,1.08-.42,1.28-1.06l2.14-8.74,11.69-.31-1.97,7.92c-.18.69.22,1.46.85,1.67h.49c.59-.03,1.08-.44,1.28-1.08l5.45-21.54,4.36,11.64v.04c.44.77.56,2.22,2.41,4.46,2.37,2.85,6.9,4.11,12.7,4.45h.23s1.22,3.97,1.22,3.97c.22.61.7.98,1.28.98h.52c.61-.26.96-1.03.75-1.7l-.97-3.18h.56c.1-.01.21-.01.31-.02l10.67-.28,1.2,3.97c.22.61.7.98,1.28.98h.52c.28-.13.51-.35.64-.64.14-.32.14-.68-.02-1.02l-.02-.04-1.02-3.32,1.09-.03c.67-.02,1.26-.64,1.24-1.3ZM14.86,5.75l.81,2.88h-1.53l.72-2.88ZM13.49,11.2h2.9l2.68,9.51-8.01.21,2.43-9.72ZM17.07,42.89l-11.69.31,2.08-8.56,11.69-.31-2.08,8.56ZM20.84,27.6l-.93,4-11.7.31,2.1-8.27,9.38-.25,1.16,3.89v.32ZM29.05,8.34l.49-1.99.56,1.96-1.06.03Z"/>
    </g>
  </g>
</svg>