<?xml version="1.0" encoding="UTF-8"?>
<svg id="Layer_2" data-name="Layer 2" xmlns="http://www.w3.org/2000/svg" xmlns:xlink="http://www.w3.org/1999/xlink" viewBox="0 0 60.89 61.33">
  <defs>
    <style>
      .cls-1 {
        fill: #b23427;
      }

      .cls-2 {
        fill: none;
      }

      .cls-3 {
        clip-path: url(#clippath);
      }
    </style>
    <clipPath id="clippath">
      <rect class="cls-2" width="60.89" height="61.33"/>
    </clipPath>
  </defs>
  <g id="Layer_1-2" data-name="Layer 1">
    <g class="cls-3">
      <path class="cls-1" d="M55.83,14.16c-3.6-5.46-8.95-9.68-15.06-11.9C34.13-.14,26.72-.14,20.08,2.27c-6.11,2.21-11.46,6.44-15.06,11.9C1.73,19.14,0,24.92,0,30.88,0,32.24.1,33.65.3,35.06c.68,4.97,2.63,9.74,5.6,13.8,4.27,5.81,10.46,9.93,17.43,11.6,2.33.56,4.72.84,7.1.84s4.76-.29,7.09-.84c6.97-1.67,13.16-5.79,17.43-11.6,2.98-4.05,4.92-8.83,5.6-13.8.2-1.42.3-2.83.3-4.18,0-5.96-1.73-11.74-5.02-16.72ZM39.54,5.99c.14.05.27.08.41.14,5.28,2.04,9.85,5.8,12.9,10.59.08.14.16.28.24.41l-3.27,8.15-8.41,2.11-9.68-7.04v-8.69l7.82-5.68ZM29.13,11.68v8.69l-9.68,7.04-8.4-2.11-3.28-8.15c.08-.14.16-.28.24-.41,3.04-4.79,7.61-8.55,12.89-10.59.14-.05.27-.08.41-.14l7.82,5.68ZM10.41,27.8l8.55,2.15,3.49,10.74-4.93,7.36-7.05.27c-.11-.13-.23-.26-.34-.39-3.45-4.1-5.56-9.05-6.1-14.33-.02-.15-.01-.3-.03-.45l6.41-5.35ZM19.67,49.49l4.79-7.16h11.93l4.79,7.16-2.42,6.57c-.16.06-.32.12-.48.17-5.08,1.57-10.63,1.57-15.7,0-.17-.05-.32-.11-.48-.17l-2.42-6.58ZM43.33,48.05l-4.93-7.36,3.49-10.74,8.55-2.15,6.41,5.36c-.02.15-.01.3-.03.45-.54,5.28-2.65,10.23-6.1,14.33-.11.13-.23.26-.35.39l-7.05-.27Z"/>
    </g>
  </g>
</svg>