<?xml version="1.0" encoding="UTF-8"?>
<svg id="Layer_2" data-name="Layer 2" xmlns="http://www.w3.org/2000/svg" viewBox="0 0 48.6 46.06">
  <defs>
    <style>
      .cls-1 {
        fill: #b23428;
      }
    </style>
  </defs>
  <g id="Layer_1-2" data-name="Layer 1">
    <g>
      <path class="cls-1" d="M21,13.64c0,5.61-4.4,10.2-9.92,10.5v-5.57c2.47-.28,4.39-2.39,4.39-4.93s-1.92-4.64-4.39-4.92V3.15c5.52.3,9.92,4.89,9.92,10.49Z"/>
      <path class="cls-1" d="M33.14,32.41c0,2.5,1.84,4.57,4.24,4.91v5.58c-5.46-.38-9.78-4.93-9.78-10.49s4.32-10.1,9.78-10.48v5.58c-2.4.34-4.24,2.41-4.24,4.9Z"/>
      <path class="cls-1" d="M37,4.02l-9.09,17.88-1.18,2.33-10.32,20.31c-.49.97-1.46,1.52-2.47,1.52-.42,0-.85-.1-1.25-.3-1.37-.7-1.91-2.36-1.21-3.73l8.68-17.09,1.5-2.94L32.07,1.51c.49-.96,1.46-1.51,2.47-1.51.42,0,.85.1,1.25.3,1.36.69,1.9,2.36,1.21,3.72Z"/>
      <path class="cls-1" d="M37,4.02l-9.09,17.88-1.18,2.33-10.32,20.31c-.49.97-1.46,1.52-2.47,1.52-.42,0-.85-.1-1.25-.3-1.37-.7-1.91-2.36-1.21-3.73l8.68-17.09,1.5-2.94L32.07,1.51c.49-.96,1.46-1.51,2.47-1.51.42,0,.85.1,1.25.3,1.36.69,1.9,2.36,1.21,3.72Z"/>
      <path class="cls-1" d="M11.08,3.15c-.19,0-.38-.01-.57-.01C4.71,3.14,0,7.85,0,13.64s4.71,10.51,10.51,10.51c.19,0,.38-.01.57-.01,5.52-.3,9.92-4.89,9.92-10.5S16.6,3.45,11.08,3.15ZM11.08,18.57c-.18.03-.38.04-.57.04-2.74,0-4.97-2.23-4.97-4.97s2.23-4.96,4.97-4.96c.19,0,.39.01.57.04,2.47.28,4.39,2.38,4.39,4.92s-1.92,4.65-4.39,4.93Z"/>
      <polygon class="cls-1" points="21.66 22 21.66 24.94 20.16 24.94 21.66 22"/>
      <path class="cls-1" d="M11.08,3.15c-.19,0-.38-.01-.57-.01C4.71,3.14,0,7.85,0,13.64s4.71,10.51,10.51,10.51c.19,0,.38-.01.57-.01,5.52-.3,9.92-4.89,9.92-10.5S16.6,3.45,11.08,3.15ZM11.08,18.57c-.18.03-.38.04-.57.04-2.74,0-4.97-2.23-4.97-4.97s2.23-4.96,4.97-4.96c.19,0,.39.01.57.04,2.47.28,4.39,2.38,4.39,4.92s-1.92,4.65-4.39,4.93Z"/>
      <polygon class="cls-1" points="27.91 21.9 26.73 24.23 26.73 21.9 27.91 21.9"/>
      <path class="cls-1" d="M38.1,21.91c-.24,0-.48.01-.72.02-5.46.38-9.78,4.93-9.78,10.48s4.32,10.11,9.78,10.49c.24,0,.48.02.72.02,5.61,0,10.2-4.42,10.49-9.97v-1.08c-.29-5.54-4.88-9.96-10.49-9.96ZM38.1,37.38c-.24,0-.49-.02-.72-.06-2.4-.34-4.24-2.41-4.24-4.91s1.84-4.56,4.24-4.9c.23-.04.48-.06.72-.06,2.73,0,4.96,2.23,4.96,4.96s-2.23,4.97-4.96,4.97Z"/>
      <path class="cls-1" d="M48.59,31.87c-.29-5.54-4.88-9.96-10.49-9.96-.24,0-.48.01-.72.02-5.46.38-9.78,4.93-9.78,10.48s4.32,10.11,9.78,10.49c.24,0,.48.02.72.02,5.61,0,10.2-4.42,10.49-9.97.01-.18.01-.36.01-.54s0-.36-.01-.54ZM38.1,37.38c-.24,0-.49-.02-.72-.06-2.4-.34-4.24-2.41-4.24-4.91s1.84-4.56,4.24-4.9c.23-.04.48-.06.72-.06,2.73,0,4.96,2.23,4.96,4.96s-2.23,4.97-4.96,4.97Z"/>
    </g>
  </g>
</svg>